<?xml version='1.0' encoding='UTF-8'?>
<!DOCTYPE svg PUBLIC "-//W3C//DTD SVG 20010904//EN" "http://www.w3.org/TR/2001/REC-SVG-20010904/DTD/svg10.dtd">
<svg xmlns="http://www.w3.org/2000/svg" version="1.0" width="1800.000000pt" height="1014.000000pt" viewBox="0 0 1800.000000 1014.000000" preserveAspectRatio="xMidYMid meet">
<g transform="translate(0.000000,1014.000000) scale(0.100000,-0.100000)" fill="#000000" stroke="none">
  <!-- Upper-left head views -->
  <path id="Head" d="M1975 9415 c-55 -7 -127 -23 -160 -35 -33 -12 -70 -24 -82 -27 -12 -3 -28 -11 -34 -19 -6 -8 -17 -14 -23 -14 -40 0 -205 -112 -289 -197 l-68 -68 -50 -85 c-27 -47 -49 -91 -49 -98 0 -8 -6 -26 -14 -40 -15 -29 -36 -104 -60 -217 -19 -89 -35 -392 -26 -510 3 -49 4 -96 2 -103 l-4 -13 -32 35 -31 34 -32 -5 -31 -5 -6 -21 c-3 -11 -2 -25 1 -30 l6 -10 13 18 c8 10 17 15 21 11 11 -11 15 -221 6 -291 l-9 -60 -18 65 c-10 36 -21 106 -25 155 l-6 90 -9 -13 c-4 -8 -11 -51 -13 -96 l-6 -82 14 -25 c7 -13 19 -76 26 -139 16 -142 27 -207 42 -243 6 -16 11 -41 11 -56 0 -77 42 -141 91 -141 l28 0 21 27 21 27 9 -14 c6 -8 10 -44 10 -80 0 -36 7 -90 15 -120 8 -30 15 -68 15 -85 0 -16 7 -59 15 -95 8 -36 20 -123 26 -195 l12 -130 -7 -140 c-3 -77 -10 -168 -14 -202 l-8 -62 -49 -73 c-100 -147 -283 -312 -453 -408 -60 -34 -74 -52 -52 -65 11 -6 517 9 710 22 107 7 107 9 -3 18 l-78 7 -11 24 -11 24 -13 -11 -14 -11 -17 7 c-10 5 -26 7 -35 6 l-18 -2 0 24 c0 13 11 41 25 61 14 21 35 56 47 79 11 23 35 60 53 82 43 52 125 224 125 260 0 6 14 37 30 68 l30 58 0 49 0 48 15 6 15 5 0 31 c0 16 5 30 10 30 6 0 10 9 10 21 0 11 5 30 12 42 6 12 13 63 15 112 11 266 26 390 55 451 l10 21 -12 54 c-6 30 -15 75 -19 101 -4 25 -19 64 -33 85 -41 63 -68 121 -68 148 l0 26 26 24 c24 22 26 45 4 45 -21 0 -59 50 -89 115 -18 39 -41 79 -50 90 l-18 20 -8 85 c-5 47 -9 121 -10 165 -4 149 -15 286 -25 305 -5 10 -9 39 -8 65 l2 47 22 8 22 9 10 48 c5 26 7 70 4 96 l-4 49 18 41 c10 23 24 49 31 57 7 9 20 45 29 80 9 36 26 82 38 104 11 21 27 49 33 61 21 37 87 101 129 123 85 45 164 81 181 81 10 0 83 3 163 5 79 3 183 1 231 -4 l87 -9 29 -15 c45 -25 66 -39 96 -63 16 -13 34 -23 41 -23 48 0 156 -150 195 -273 16 -51 34 -104 39 -118 5 -13 17 -56 27 -96 l17 -71 -12 -36 -11 -35 5 -43 c4 -24 8 -68 11 -99 2 -31 9 -68 15 -84 l10 -27 2 -202 1 -202 -14 -30 c-9 -16 -35 -69 -60 -117 l-44 -89 -72 -76 c-40 -42 -73 -83 -73 -92 0 -9 -5 -21 -12 -28 l-12 -12 12 -12 12 -12 35 13 c19 7 39 10 44 6 l10 -6 -24 -47 c-13 -26 -26 -65 -30 -87 -4 -22 -16 -55 -26 -73 -11 -19 -17 -38 -14 -42 3 -5 -3 -27 -15 -49 -26 -53 -26 -56 14 -103 l35 -40 6 -52 c3 -28 7 -103 9 -166 l4 -115 17 -61 16 -62 -10 -43 -10 -44 6 -80 6 -80 17 -35 c24 -48 38 -81 45 -107 6 -20 27 -61 68 -128 7 -11 24 -36 40 -57 15 -20 29 -49 31 -65 2 -15 11 -45 20 -67 l16 -39 -17 -13 -18 -13 13 -21 12 -20 -15 -6 c-8 -4 -15 -15 -15 -25 0 -22 -12 -24 -39 -7 l-19 12 -104 -13 c-56 -7 -157 -14 -223 -16 -66 -2 -133 -8 -150 -13 l-30 -9 25 -6 c21 -5 740 -19 1060 -21 l95 -1 3 16 3 16 -43 23 c-195 101 -372 255 -465 405 -15 23 -44 85 -64 135 l-14 35 0 260 0 260 12 55 c14 66 32 195 43 310 11 119 33 167 57 127 4 -8 17 -18 27 -24 l19 -11 27 10 c41 14 91 154 110 308 5 36 13 81 19 100 6 19 11 60 11 90 l1 55 14 25 c15 27 18 99 5 140 -4 14 -8 23 -9 20 -1 -3 -5 -32 -11 -65 -12 -73 -32 -145 -41 -145 -13 0 -20 92 -18 218 l2 126 -10 3 c-6 2 -25 -10 -42 -27 -17 -17 -31 -30 -32 -28 0 2 -2 125 -4 273 l-3 270 -21 105 c-75 368 -219 551 -543 691 -129 55 -317 96 -401 88 -7 -1 -57 -7 -112 -14z m1091 -1592 c23 -78 27 -131 17 -238 l-8 -90 -20 0 -20 0 -1 65 c0 36 -4 113 -8 171 -12 154 8 199 40 92z m-1920 -67 c-3 -55 -9 -141 -12 -189 l-7 -88 -11 4 c-13 4 -33 110 -35 182 l-1 50 21 65 c12 36 23 71 25 78 l4 13 11 -7 12 -7 -7 -101z m1892 -460 l14 -27 -12 -14 -12 -15 -19 11 -19 10 0 28 c0 50 26 54 48 7z m-1858 -5 c0 -32 -13 -46 -35 -37 l-14 5 10 31 c6 16 17 30 25 30 l14 0 0 -29z" data-original-id="PosteriorHead"/>
  <path id="Face" d="M5720 9410 c-75 -9 -161 -34 -290 -83 -34 -12 -104 -48 -145 -74 -11 -7 -27 -15 -35 -19 -23 -11 -90 -66 -138 -114 -196 -196 -292 -561 -263 -1000 10 -164 -1 -186 -64 -120 l-29 30 -35 0 -36 -1 -25 -20 -25 -21 0 -113 1 -112 16 -54 c15 -50 25 -94 48 -211 4 -25 20 -70 33 -100 14 -29 33 -78 42 -108 10 -30 27 -65 38 -77 l20 -23 29 0 c15 0 37 6 48 13 l21 12 9 -15 c5 -8 10 -36 10 -62 0 -51 15 -163 31 -238 6 -25 12 -56 15 -70 11 -48 49 -135 86 -198 l38 -62 0 -151 0 -151 -15 -62 c-51 -204 -217 -355 -664 -604 -20 -11 -25 -29 -9 -34 11 -4 2050 7 2351 13 62 1 211 -2 333 -6 l221 -8 7 11 6 10 -42 25 c-24 14 -65 37 -93 52 -27 16 -66 40 -85 55 -19 15 -73 49 -120 75 -47 26 -87 51 -90 55 -8 12 -68 40 -85 40 -8 0 -15 5 -15 10 0 6 -4 10 -9 10 -15 0 -6 -48 12 -68 l17 -19 0 -39 0 -39 18 23 18 23 18 -20 18 -20 -6 -26 -6 -25 15 -29 14 -29 -24 -16 c-26 -17 -65 -21 -81 -8 -5 5 -25 15 -44 23 -37 14 -100 69 -100 87 0 6 -9 13 -19 17 l-19 6 -26 -26 -25 -25 -32 0 -32 0 -11 -14 -11 -15 -55 -2 c-30 -1 -62 1 -70 4 -40 14 -48 15 -56 7 l-9 -9 -80 11 c-95 12 -69 12 -233 0 -130 -10 -154 -9 -179 10 l-11 9 15 47 16 46 141 141 c78 77 162 155 187 172 44 31 86 74 142 146 16 20 47 44 68 54 l40 17 16 34 c16 34 79 89 89 79 4 -3 9 -26 11 -51 l6 -46 -13 -15 -13 -15 -2 -68 c-1 -37 -3 -71 -5 -77 -2 -5 0 -32 5 -58 l8 -49 23 -23 c13 -13 24 -33 24 -43 0 -24 29 -82 41 -82 5 0 9 5 9 10 0 6 7 10 15 10 l15 0 0 -18 c0 -10 -7 -27 -15 -38 -20 -27 -19 -48 6 -69 l20 -19 24 29 c25 31 32 55 15 55 -5 0 -10 9 -10 20 l0 21 18 -3 17 -3 3 30 3 30 -31 33 c-16 18 -30 40 -30 48 0 8 -4 14 -10 14 -5 0 -10 -16 -10 -36 l0 -36 -11 4 -11 4 -2 69 c-2 39 -8 113 -14 165 -23 196 -13 408 23 450 7 8 15 26 18 40 3 14 15 61 27 105 l22 80 5 155 c2 85 7 162 9 170 l5 14 7 -9 c20 -29 90 -58 120 -50 l23 6 19 42 c11 23 20 54 20 70 0 15 14 53 30 84 17 31 30 63 30 72 0 10 5 22 11 28 6 6 17 51 24 99 8 49 18 109 24 134 6 25 17 84 26 131 l15 86 -12 39 -13 39 -27 13 -27 12 -25 -23 -26 -24 0 -30 0 -29 -25 -34 c-37 -51 -14 -71 29 -25 l24 26 7 -70 c10 -101 -7 -115 -69 -60 l-35 31 -19 -6 c-32 -10 -53 -42 -59 -86 l-6 -42 14 -9 c8 -4 23 -6 35 -3 l21 5 36 -43 35 -42 20 17 c52 47 41 -27 -13 -84 l-45 -48 0 -21 c0 -11 -4 -20 -9 -20 -17 0 -21 -32 -9 -72 l12 -40 -15 -9 c-24 -15 -53 -10 -83 14 l-28 23 11 39 c6 22 11 61 11 88 l0 47 -26 -17 -27 -17 -38 -83 c-21 -46 -43 -83 -48 -83 -6 0 -13 -11 -17 -24 l-6 -25 -38 -26 -39 -27 -20 -68 c-22 -73 -46 -268 -37 -303 3 -11 1 -41 -4 -66 l-9 -46 -38 -44 c-21 -25 -54 -60 -75 -79 -20 -18 -42 -47 -48 -63 l-13 -30 18 -19 18 -20 -6 -45 c-8 -56 -48 -137 -81 -162 -13 -11 -35 -35 -48 -54 -13 -19 -39 -55 -58 -80 l-35 -47 -36 -11 c-89 -27 -124 -8 -153 81 -2 9 -16 24 -30 34 l-26 16 -25 -6 -25 -6 0 -25 c0 -13 5 -27 10 -30 17 -10 11 -51 -10 -70 l-19 -17 -25 6 -24 6 -22 44 c-11 25 -37 65 -56 90 l-34 45 -7 48 c-3 26 -12 61 -20 76 -8 15 -11 37 -8 47 l6 19 37 11 c20 5 52 10 70 10 17 0 78 7 135 15 l102 16 46 -6 45 -6 24 19 24 20 -9 38 -10 39 -180 1 -180 0 -60 34 -61 33 -27 -7 c-15 -3 -27 -12 -27 -19 l0 -12 -50 0 c-27 0 -50 3 -50 8 0 4 0 14 0 22 0 8 15 22 33 30 17 9 50 26 72 37 l39 22 249 2 250 3 31 -13 c18 -7 61 -16 98 -20 l65 -7 7 16 c15 41 -29 71 -87 60 l-34 -7 -49 22 c-27 13 -62 32 -78 43 l-29 20 -44 -11 c-62 -17 -94 -15 -148 9 l-47 21 -51 -7 c-65 -9 -141 -40 -186 -77 l-35 -27 -31 19 -31 19 -37 -6 -37 -6 0 12 c0 19 26 64 49 85 l21 19 32 -10 33 -9 105 51 c58 28 128 66 155 83 28 18 61 35 75 39 14 3 30 12 37 21 l12 15 48 -7 c76 -11 86 -9 115 25 48 55 34 81 -51 95 l-42 7 -30 -22 -30 -23 -52 13 c-29 6 -64 18 -78 25 l-25 13 -11 35 -11 36 13 51 c7 27 19 56 25 64 12 14 13 36 10 325 l-1 195 -16 50 c-25 81 -97 137 -203 157 -205 41 -267 43 -306 13 l-19 -15 45 -39 45 -39 0 -23 0 -23 23 -6 c51 -12 -3 -48 -73 -49 l-30 0 19 14 c23 17 15 31 -23 38 -15 3 -43 20 -60 37 l-31 32 0 23 c0 13 -7 28 -16 33 l-16 9 -1 29 c0 16 0 53 1 83 l2 55 43 40 c56 53 65 79 71 211 5 109 15 157 35 170 14 8 14 52 1 60 -5 3 -10 24 -10 46 l0 39 14 0 c17 0 26 22 26 61 0 16 6 44 14 62 l13 33 63 34 c34 19 73 41 87 48 13 8 27 20 30 28 l5 14 37 0 36 0 35 22 c62 39 82 48 122 55 22 3 42 11 44 17 l4 11 93 -1 c101 0 195 -12 202 -25 3 -4 31 -11 63 -15 65 -7 122 -28 122 -43 0 -6 13 -11 29 -11 16 0 34 -7 41 -15 7 -8 18 -15 25 -15 6 0 31 -18 55 -40 24 -22 48 -40 54 -40 19 0 52 -43 67 -85 8 -22 24 -55 37 -74 12 -19 22 -44 22 -57 l0 -24 25 -16 c14 -9 25 -25 25 -35 0 -11 9 -28 20 -39 l20 -20 -2 -29 c-1 -16 4 -36 10 -44 l13 -15 -11 -7 -12 -7 7 -25 6 -25 -12 -14 -12 -15 21 -6 c26 -6 27 -12 6 -28 l-16 -11 13 -22 13 -22 -12 -12 -13 -13 -9 15 c-23 37 -35 50 -49 50 l-14 0 16 -18 c10 -10 17 -24 17 -30 0 -6 8 -17 18 -24 10 -7 21 -20 25 -28 4 -8 16 -28 27 -45 33 -51 109 -220 111 -247 0 -7 5 -2 11 12 l10 25 0 180 c-1 100 -5 192 -11 206 -5 14 -12 52 -15 85 -7 65 -14 93 -46 204 -46 157 -83 223 -184 328 -118 123 -214 181 -425 256 l-75 27 -95 9 c-106 11 -169 10 -251 0z m-792 -1481 l-20 -27 7 -21 c4 -12 18 -26 32 -32 l25 -9 -7 -28 c-3 -15 -16 -37 -27 -49 l-21 -22 1 -86 0 -85 -10 -6 c-18 -11 -29 20 -22 68 l6 46 -17 54 -17 54 21 86 c11 48 21 92 21 99 0 7 8 21 17 32 l18 19 6 -33 7 -32 -20 -28z m471 -19 c23 -17 44 -37 47 -45 3 -8 21 -23 39 -34 l34 -20 26 -51 26 -52 -20 -68 c-12 -37 -21 -80 -21 -95 0 -14 -11 -81 -25 -148 l-25 -122 -29 -55 c-15 -30 -31 -68 -35 -85 -4 -16 -24 -55 -43 -87 l-36 -58 -23 0 -24 0 0 18 c0 9 -7 26 -16 37 l-15 20 7 61 6 61 -21 41 c-11 22 -30 43 -40 47 -20 6 -101 118 -101 139 0 7 -14 34 -31 61 -36 57 -79 177 -79 221 l0 31 21 27 c26 34 48 33 93 -3 l37 -30 56 -11 c52 -11 118 -9 131 5 11 10 -23 57 -48 66 -79 29 -100 48 -75 69 l16 13 11 -11 c7 -7 18 -12 25 -12 l13 0 -11 27 -10 26 22 24 22 23 27 0 27 0 42 -30z m-134 -970 c3 -6 -1 -13 -9 -16 -20 -8 -20 -23 -2 -38 8 -6 16 -29 18 -51 l3 -40 -20 0 -20 0 -7 64 -7 65 11 13 c13 16 25 17 33 3z m47 -187 l18 -16 0 -64 0 -64 -45 37 c-42 34 -58 64 -35 64 6 0 10 11 10 23 0 40 21 48 52 20z m61 -295 c15 -7 27 -18 27 -24 0 -6 7 -17 16 -25 14 -11 46 -58 98 -142 9 -15 28 -32 41 -37 l24 -9 -1 -18 c-1 -10 15 -52 35 -95 45 -93 45 -88 -3 -88 l-40 0 -11 -22 c-11 -26 -52 -48 -87 -48 l-23 0 -10 29 c-6 15 -21 33 -34 39 l-25 11 6 29 6 30 -11 7 -12 7 7 34 6 34 -11 0 c-16 0 -13 27 4 34 21 8 19 32 -6 65 -12 16 -25 46 -29 68 -5 21 -14 52 -21 70 l-13 31 13 16 c16 19 20 19 54 4z m-67 -527 l1 -24 27 -20 c57 -41 24 -74 -34 -34 l-34 22 -1 43 -1 43 20 -3 21 -3 1 -24z" data-original-id="AnteriorFace"/>
  <!-- End upper_left_head_views -->
  <!-- Far-right body view and details -->
  <path id="UpperBack" d="M15270 9403 c-95 -34 -136 -58 -192 -112 -55 -52 -70 -75 -112 -173 l-16 -36 0 -87 0 -87 -19 -24 -19 -24 5 -87 5 -88 14 -22 c8 -12 14 -32 14 -43 0 -12 12 -33 27 -48 15 -15 35 -43 45 -62 l18 -34 0 -108 0 -108 -65 -65 c-35 -36 -71 -65 -79 -65 -7 0 -19 -7 -26 -15 -7 -8 -21 -15 -30 -15 -10 0 -31 -6 -47 -14 -15 -8 -44 -21 -63 -29 -19 -8 -52 -22 -73 -31 -21 -9 -51 -16 -67 -16 -27 0 -83 -19 -120 -41 -8 -5 -22 -12 -30 -16 -23 -10 -103 -75 -125 -102 -24 -31 -33 -46 -64 -108 -13 -26 -28 -57 -34 -68 -6 -11 -15 -49 -19 -85 -4 -36 -11 -85 -16 -110 -4 -25 -4 -70 1 -100 4 -30 11 -97 14 -149 l5 -93 -15 -52 -15 -51 -6 -150 c-8 -249 -39 -376 -107 -435 -3 -3 -16 -26 -28 -52 -13 -27 -27 -50 -32 -54 -5 -3 -9 -15 -9 -28 0 -12 -5 -27 -12 -34 -14 -14 -37 -73 -47 -122 -4 -19 -13 -45 -19 -57 -7 -12 -12 -42 -12 -66 0 -25 -7 -58 -15 -73 -8 -16 -15 -50 -15 -75 0 -26 -7 -66 -15 -89 -8 -23 -15 -53 -15 -65 0 -13 -7 -36 -15 -51 -8 -16 -15 -47 -15 -69 0 -22 -7 -49 -15 -59 -8 -11 -15 -34 -15 -52 0 -18 -6 -45 -14 -61 -8 -15 -22 -48 -31 -73 -10 -25 -23 -57 -31 -72 -8 -14 -14 -33 -14 -42 l0 -15 -97 -72 c-112 -82 -114 -85 -151 -159 -15 -30 -39 -68 -54 -84 -16 -17 -28 -39 -28 -50 0 -22 -37 -103 -51 -112 -5 -3 -9 -16 -9 -29 l0 -24 29 -20 c43 -31 77 -25 128 22 13 11 26 18 29 14 11 -10 23 -161 14 -177 -27 -55 -19 -198 14 -230 101 -99 131 -116 155 -86 6 7 32 19 57 26 l46 13 24 38 c13 21 36 45 51 53 31 16 73 68 73 90 0 8 4 17 8 20 5 3 19 45 31 93 12 48 29 108 37 133 8 25 14 70 14 100 0 30 7 73 15 95 l14 40 1 89 0 90 36 70 c19 39 44 85 55 101 10 17 23 40 28 52 5 11 15 24 20 28 6 3 11 15 11 26 0 10 5 19 10 19 6 0 15 10 20 23 12 27 27 52 61 97 14 19 29 42 32 50 4 8 16 29 27 45 11 17 24 39 30 50 6 11 19 34 30 50 19 28 22 35 35 68 3 6 9 20 15 30 5 9 15 25 20 35 6 9 13 24 16 32 3 8 12 29 20 47 8 17 14 42 14 55 0 13 5 29 12 36 6 6 15 33 20 59 31 164 40 219 49 313 5 58 12 111 15 119 l5 15 13 -15 c44 -46 46 -279 4 -419 -6 -19 -12 -111 -15 -205 l-5 -170 -11 -20 c-6 -11 -14 -63 -18 -115 -6 -87 -14 -130 -40 -217 -6 -18 -14 -70 -19 -115 -5 -46 -14 -117 -19 -158 -13 -96 -13 -384 0 -475 5 -38 14 -115 18 -170 5 -55 14 -113 20 -128 6 -16 11 -46 11 -68 0 -22 7 -56 15 -76 8 -19 15 -54 15 -77 0 -22 7 -50 15 -60 l15 -20 0 -41 0 -41 15 -20 c8 -10 15 -30 15 -44 0 -14 7 -38 15 -54 8 -15 15 -38 15 -51 0 -12 7 -28 15 -35 l15 -12 0 -37 c0 -20 6 -45 14 -56 7 -11 16 -33 19 -50 3 -16 11 -50 17 -75 l12 -45 0 -180 0 -181 -16 -38 c-9 -21 -16 -53 -16 -71 0 -18 -7 -50 -16 -71 l-17 -39 0 -235 -1 -235 16 -50 c22 -67 38 -132 45 -175 3 -19 12 -44 19 -55 8 -11 14 -35 14 -55 0 -19 7 -44 15 -54 8 -11 15 -31 15 -44 0 -13 6 -38 13 -55 23 -53 47 -134 47 -154 0 -11 7 -28 15 -39 8 -10 15 -33 15 -50 0 -17 7 -51 15 -74 l15 -43 0 -137 0 -138 -15 -12 c-8 -7 -15 -18 -15 -25 0 -16 -94 -115 -109 -115 -7 0 -25 -10 -41 -22 l-30 -22 0 -44 0 -44 23 -19 c12 -10 32 -18 43 -19 12 0 39 -7 60 -16 l39 -16 65 12 65 12 28 -11 c16 -6 61 -11 101 -11 l73 0 40 29 40 29 8 29 8 28 13 -32 c8 -18 31 -44 51 -58 l38 -25 71 0 c39 0 86 5 104 11 l32 12 52 -11 51 -12 40 11 c22 6 58 13 80 16 l40 5 28 26 c45 43 26 96 -50 136 -29 15 -112 105 -145 157 l-16 25 -1 125 -2 126 16 29 c8 16 15 49 15 74 l1 45 14 19 c8 11 15 31 15 45 1 14 7 37 15 51 8 14 15 36 15 50 0 14 7 34 15 44 8 11 15 36 15 55 0 20 7 45 15 55 8 11 15 30 15 43 0 12 6 40 14 60 7 21 21 67 30 103 10 36 22 79 28 95 5 17 14 64 18 105 4 41 14 105 21 142 l13 68 -13 77 c-7 43 -16 115 -21 159 -4 45 -11 88 -15 95 -52 83 -51 501 0 617 8 18 15 45 15 60 0 15 7 36 15 46 8 11 15 31 15 45 1 14 7 37 15 51 8 14 14 37 15 51 0 14 7 34 15 45 8 10 15 37 15 60 0 22 7 49 15 60 8 10 15 35 15 55 0 20 7 53 15 72 8 20 15 49 15 64 0 15 7 46 15 68 8 22 14 66 15 98 0 32 5 68 12 80 7 12 15 72 19 132 4 61 13 160 20 222 l13 112 -13 138 c-7 76 -16 181 -20 234 -3 53 -11 103 -17 110 -6 8 -14 50 -17 95 -3 44 -11 93 -17 108 -5 15 -10 50 -10 77 0 27 -7 66 -15 86 l-15 35 0 167 0 166 -15 29 -15 28 0 139 0 138 9 5 c5 4 12 24 16 47 13 77 34 -1 44 -169 l7 -112 12 -12 c7 -7 12 -31 12 -55 0 -24 7 -60 15 -80 8 -19 15 -45 15 -57 0 -12 7 -31 15 -42 8 -10 15 -28 15 -40 0 -11 7 -29 15 -40 8 -10 15 -29 15 -41 0 -12 4 -24 9 -28 6 -3 21 -29 36 -58 14 -28 34 -65 45 -82 11 -16 24 -39 30 -50 15 -29 32 -56 63 -96 15 -20 27 -42 27 -49 0 -7 13 -29 28 -49 16 -20 32 -43 35 -51 4 -8 16 -28 27 -45 10 -16 31 -54 47 -82 15 -29 31 -53 35 -53 4 0 8 -8 8 -19 0 -10 7 -24 15 -31 8 -7 15 -19 15 -27 0 -8 5 -24 12 -36 l12 -22 2 -108 c2 -100 21 -221 46 -292 6 -16 14 -53 18 -80 20 -131 84 -254 134 -255 6 0 23 -20 37 -44 l27 -44 31 -7 c17 -4 44 -13 60 -21 l30 -15 24 6 c14 4 37 20 53 36 15 16 33 29 41 29 7 0 17 9 23 19 l10 20 0 206 0 206 25 -27 c61 -65 136 -69 164 -8 l11 24 -24 43 c-13 23 -26 55 -30 72 -4 16 -25 55 -46 87 -20 31 -40 67 -44 81 -8 31 -72 96 -163 164 -40 30 -73 60 -73 68 0 7 -6 26 -14 42 -39 77 -83 206 -105 303 -4 19 -13 45 -19 57 -7 12 -12 39 -12 60 0 22 -7 48 -15 59 l-14 19 -1 46 c0 26 -7 63 -15 82 -8 20 -15 56 -15 79 -1 24 -7 54 -15 68 -8 14 -14 39 -15 56 0 16 -7 39 -15 50 -8 10 -15 30 -15 43 0 26 -64 166 -80 176 -6 4 -10 13 -10 22 0 8 -13 32 -30 53 -16 21 -30 42 -30 47 0 5 -6 15 -12 21 -24 24 -40 129 -48 307 l-7 180 -13 30 -12 30 1 248 2 248 -18 57 c-9 31 -23 64 -30 73 -7 8 -13 25 -13 36 0 11 -7 26 -15 33 -8 7 -15 18 -15 24 0 53 -224 206 -301 206 -16 0 -43 6 -61 14 -18 8 -53 22 -78 31 -56 22 -110 45 -130 56 -8 5 -24 13 -35 18 -40 18 -108 86 -126 125 l-19 41 0 81 0 82 15 28 c8 16 15 36 15 45 0 9 11 22 25 29 l26 14 5 25 c3 14 12 38 20 53 8 14 14 46 14 71 0 25 7 58 15 73 20 38 19 46 -7 79 l-22 28 -1 66 c-1 84 -14 162 -30 181 -7 8 -15 27 -19 42 -22 95 -223 218 -366 224 l-65 3 -45 -16z m240 -83 c81 -34 165 -118 200 -200 l15 -35 -1 -115 c-1 -63 -4 -130 -9 -148 l-7 -32 12 -15 13 -16 -26 -27 c-15 -16 -27 -35 -27 -43 0 -8 -6 -24 -14 -35 -28 -39 -48 -290 -31 -384 l8 -45 31 -40 c17 -22 38 -46 48 -53 9 -7 25 -20 34 -30 18 -17 47 -36 74 -47 8 -4 27 -13 42 -21 14 -8 33 -14 41 -14 8 0 20 -7 27 -15 7 -8 25 -15 40 -15 15 0 33 -6 39 -14 7 -8 31 -16 54 -19 87 -9 190 -59 254 -122 l51 -52 35 -74 34 -74 9 -75 c9 -84 9 -142 -1 -315 l-7 -120 16 -39 16 -38 0 -82 c1 -137 28 -377 47 -411 7 -11 14 -27 17 -35 4 -8 15 -28 26 -45 11 -16 24 -39 30 -50 6 -11 19 -33 30 -50 11 -16 22 -37 26 -45 3 -8 11 -28 18 -45 43 -98 76 -204 76 -245 1 -19 7 -53 15 -75 8 -22 15 -55 15 -73 0 -18 7 -49 15 -69 8 -19 15 -50 15 -67 1 -17 7 -42 15 -56 8 -14 14 -41 15 -61 0 -19 7 -44 15 -55 8 -10 15 -35 15 -55 0 -19 7 -44 15 -55 8 -10 15 -27 15 -36 0 -10 7 -34 16 -55 9 -21 24 -54 32 -73 8 -19 21 -48 28 -63 8 -16 14 -35 14 -43 0 -7 30 -34 68 -59 95 -64 136 -103 163 -155 13 -25 25 -47 28 -50 10 -9 31 -44 41 -70 6 -14 15 -33 20 -42 6 -10 10 -27 10 -37 0 -11 5 -23 10 -26 18 -11 10 -26 -11 -23 l-22 3 -42 60 -42 60 -20 3 -21 3 -6 -93 c-9 -138 -9 -133 -1 -277 l8 -133 -18 3 -18 4 -15 60 c-8 33 -17 101 -20 150 l-7 90 -25 0 -25 0 3 -65 c2 -36 8 -85 14 -110 18 -87 30 -181 24 -197 l-7 -17 -16 17 c-19 18 -38 79 -56 174 -7 34 -15 65 -20 69 -4 4 -7 26 -7 50 0 56 -8 74 -32 74 l-21 0 5 -75 c3 -41 10 -80 16 -87 5 -7 13 -39 17 -71 4 -31 11 -60 16 -63 5 -3 9 -16 9 -30 l0 -24 -19 19 c-26 26 -81 188 -81 238 0 23 -4 53 -10 67 l-10 26 -26 0 -26 0 5 -22 c3 -13 11 -42 18 -66 l12 -43 -10 -22 -11 -22 -6 50 c-4 28 -11 58 -17 67 -5 10 -9 35 -9 55 -1 21 -7 49 -15 63 l-14 25 -1 52 c0 28 -7 80 -15 115 l-14 64 1 77 2 76 -17 19 c-9 10 -17 26 -17 34 0 9 -7 21 -15 28 -8 7 -15 21 -15 32 0 10 -7 21 -15 24 -8 4 -15 14 -15 24 0 11 -5 22 -11 25 -5 4 -15 17 -20 28 -5 12 -18 36 -29 52 -11 17 -24 39 -30 50 -14 28 -31 54 -61 95 -14 19 -29 42 -33 50 -4 8 -12 24 -19 35 -7 11 -24 38 -37 60 -14 23 -31 50 -37 60 -7 11 -24 43 -38 70 -14 28 -30 57 -34 65 -30 56 -41 80 -41 93 0 9 -5 28 -12 44 -13 32 -34 121 -48 206 -6 32 -14 67 -20 77 -5 10 -10 57 -10 104 l0 86 -14 37 c-34 93 -60 357 -51 506 l6 97 -17 7 -16 6 -24 -29 -23 -29 -1 -144 0 -144 17 -54 17 -53 -17 -48 c-9 -26 -17 -57 -17 -70 0 -13 -5 -32 -10 -42 -31 -58 -46 -217 -30 -309 5 -31 16 -96 25 -146 l15 -90 -1 -135 -1 -135 16 -45 16 -45 0 -88 0 -89 14 -26 c8 -15 20 -65 27 -112 l13 -85 4 -283 3 -283 -16 -74 c-8 -41 -15 -91 -15 -112 0 -21 -7 -56 -15 -78 -8 -22 -14 -63 -15 -91 0 -29 -7 -65 -15 -80 -8 -16 -15 -49 -15 -74 -1 -25 -7 -56 -15 -70 -8 -14 -14 -36 -15 -50 0 -14 -6 -45 -14 -70 -8 -25 -22 -72 -31 -105 -9 -33 -21 -73 -27 -90 -5 -16 -14 -46 -18 -65 -14 -54 -37 -132 -50 -165 l-11 -29 0 -218 0 -218 15 -52 c8 -29 20 -75 27 -103 l13 -50 4 -180 4 -180 -12 -55 c-6 -30 -14 -73 -19 -95 -4 -22 -13 -50 -19 -62 -7 -12 -12 -37 -12 -56 l0 -35 -15 -12 -15 -12 0 -37 c0 -21 -7 -46 -15 -57 -8 -10 -15 -30 -15 -44 0 -14 -7 -36 -15 -50 -8 -14 -15 -38 -15 -55 0 -16 -7 -39 -15 -49 -8 -11 -15 -36 -15 -56 0 -20 -5 -41 -12 -48 -6 -6 -15 -30 -19 -54 -11 -61 -29 -138 -40 -174 -5 -17 -9 -51 -9 -76 l0 -46 -15 -12 -15 -12 0 -53 c0 -79 26 -132 62 -126 4 0 22 -15 40 -35 66 -73 105 -111 132 -129 l27 -18 -31 -18 -30 -19 -48 0 c-26 0 -53 4 -61 9 l-14 9 -21 -8 c-12 -4 -55 -13 -97 -19 l-77 -12 -45 11 -45 12 -12 23 -12 22 5 54 c2 30 12 97 21 149 20 118 20 120 0 120 l-16 0 7 38 c8 37 14 81 35 247 l12 90 -5 235 -4 235 -12 30 -12 30 -1 215 -1 215 17 49 17 50 1 116 1 116 -15 35 c-16 35 -35 117 -48 204 -4 28 -3 147 2 265 l8 215 -10 245 c-12 268 -14 515 -5 530 3 5 1 58 -5 117 -6 59 -8 132 -5 161 l7 54 36 -7 c21 -3 56 -13 80 -21 23 -8 71 -14 105 -14 l62 0 29 15 c15 8 38 15 50 15 11 0 27 4 35 9 l13 9 -7 21 -7 22 -41 -7 c-23 -4 -91 -7 -152 -7 l-110 0 -42 21 c-54 28 -55 30 -51 245 l3 184 -14 17 -14 17 -21 -3 -21 -3 -5 -205 -5 -205 -10 -16 c-27 -43 -151 -64 -287 -49 l-73 8 -12 -10 c-21 -17 -15 -37 15 -44 15 -3 42 -13 61 -21 l34 -15 79 4 79 5 11 11 c7 7 24 12 38 12 14 0 36 7 48 16 l22 15 -1 -338 0 -338 -11 -50 -10 -50 -3 -442 -2 -441 -18 -69 c-9 -37 -22 -77 -28 -88 -6 -11 -13 -60 -15 -108 l-4 -88 18 -72 19 -72 -1 -220 0 -220 -14 -40 -15 -40 0 -300 0 -300 13 -60 c25 -112 30 -130 37 -148 l8 -18 -22 -6 -21 -5 1 -22 c0 -11 7 -57 15 -101 9 -44 18 -108 21 -142 l5 -61 -11 -20 -10 -19 -45 -12 -44 -11 -53 10 c-29 6 -99 9 -155 8 l-103 -2 -19 17 c-10 9 -24 17 -31 17 -7 0 10 18 38 40 28 22 68 63 89 90 l37 49 22 0 22 1 15 32 16 31 0 59 c0 32 -4 66 -9 76 -9 16 -22 84 -39 197 -5 28 -13 60 -20 72 -7 12 -12 34 -12 50 0 15 -7 37 -15 47 -8 11 -15 34 -15 51 0 17 -7 40 -15 51 -8 10 -15 27 -15 38 0 20 -25 102 -46 154 -8 18 -14 45 -14 60 0 16 -7 37 -15 48 -8 10 -15 34 -15 53 0 18 -6 54 -14 80 -46 145 -59 355 -31 486 8 38 15 81 15 95 0 14 7 43 15 65 8 22 14 63 15 90 0 28 7 72 15 99 19 63 19 176 0 249 -8 32 -15 82 -15 112 0 30 -6 69 -14 87 -17 42 -35 94 -46 133 -5 17 -13 44 -18 60 -18 54 -59 210 -71 270 -5 22 -13 53 -20 68 -6 16 -11 47 -11 70 -1 23 -7 53 -15 67 l-14 25 -1 70 c0 39 -7 95 -15 125 l-15 55 0 300 0 300 15 55 c8 30 15 82 15 115 l0 61 14 20 c8 11 16 46 19 79 7 87 26 213 42 270 l13 50 0 151 0 152 13 38 14 39 0 125 0 125 -12 40 c-6 22 -19 74 -28 117 l-18 76 6 64 c4 34 11 86 16 113 6 28 10 91 10 140 l1 90 -22 43 -23 42 -15 -2 -15 -3 -6 -195 -5 -195 -12 -35 c-7 -19 -12 -50 -12 -68 0 -18 -5 -42 -11 -53 -15 -29 -29 -108 -39 -224 -5 -55 -14 -121 -20 -147 -7 -26 -15 -71 -20 -100 -4 -29 -13 -69 -20 -88 -32 -89 -43 -117 -56 -142 -8 -14 -14 -33 -14 -41 0 -8 -7 -17 -15 -21 -8 -3 -15 -14 -15 -25 0 -11 -5 -23 -11 -26 -5 -4 -15 -17 -20 -28 -5 -12 -18 -35 -29 -52 -11 -16 -23 -37 -27 -45 -4 -8 -25 -41 -48 -75 -23 -33 -44 -67 -48 -75 -8 -18 -22 -40 -59 -93 -16 -22 -28 -46 -28 -54 0 -7 -4 -13 -9 -13 -5 0 -14 -12 -20 -27 -13 -35 -69 -135 -82 -148 -5 -5 -9 -18 -9 -30 0 -12 -5 -26 -12 -33 l-11 -11 -4 -133 c-2 -73 -8 -148 -14 -168 -6 -19 -14 -60 -19 -90 -19 -111 -36 -186 -48 -207 -6 -12 -12 -30 -12 -39 l0 -18 -10 10 c-11 11 -2 54 11 54 12 0 11 147 -1 155 -5 3 -18 -12 -30 -34 l-20 -40 0 -52 0 -51 -15 -26 c-8 -15 -19 -45 -25 -67 -24 -91 -56 -98 -40 -9 6 33 17 91 23 131 7 39 15 75 20 79 4 4 7 20 7 36 l0 28 -19 0 c-29 0 -40 -21 -47 -95 -6 -67 -29 -167 -56 -248 l-13 -37 -15 3 -15 3 1 29 c1 17 14 100 28 185 l25 155 -9 9 c-32 32 -55 -18 -64 -140 -7 -94 -24 -158 -41 -162 l-10 -2 -1 233 c-1 277 -1 277 -16 277 -13 0 -88 -76 -88 -90 0 -14 -37 -50 -51 -50 l-11 0 7 18 c4 9 10 37 13 62 2 25 8 47 12 50 14 10 80 110 80 122 1 24 191 188 219 188 3 0 17 24 30 53 13 28 29 64 37 79 8 14 14 37 14 51 0 13 7 30 15 37 8 7 15 24 15 39 1 14 7 37 15 51 8 14 14 37 15 51 0 15 7 40 15 55 8 16 15 44 15 62 0 18 5 43 12 55 7 12 15 49 19 82 4 33 12 80 19 105 22 87 33 135 39 180 4 25 13 55 19 67 7 12 12 31 12 43 0 11 14 46 30 77 17 31 30 60 30 65 0 4 12 27 27 51 38 58 51 79 60 97 4 8 13 21 20 28 7 7 13 23 13 35 0 12 7 31 15 41 l15 20 0 140 c0 78 5 159 11 181 28 112 35 240 24 458 l-7 128 17 72 c10 40 31 99 47 133 l28 60 48 46 c74 74 80 78 95 78 8 0 20 7 27 15 7 8 24 15 39 15 14 1 37 7 51 15 14 8 42 14 62 15 l37 0 15 15 c8 8 23 15 34 15 11 0 25 7 32 15 7 8 20 15 28 15 9 0 50 17 91 37 l76 37 51 52 51 52 17 48 16 48 0 90 c0 100 -21 248 -38 268 -5 7 -13 31 -17 53 -4 22 -12 46 -18 54 l-11 13 0 173 -1 173 18 19 c9 11 17 26 17 34 0 8 30 43 66 77 l66 62 21 0 c12 0 31 7 42 16 l20 15 100 -4 100 -3 35 -14z m-159 -6132 c18 -95 30 -143 39 -152 13 -13 13 -137 -1 -173 -16 -44 -32 -166 -36 -298 l-5 -120 11 -80 c28 -192 28 -762 1 -855 -11 -37 -13 -83 -11 -243 1 -54 -3 -106 -8 -115 l-9 -16 -6 34 c-8 41 -9 104 -6 217 1 45 -3 90 -8 100 -5 10 -15 109 -21 221 l-12 203 11 177 c6 97 15 213 21 257 l11 80 -5 155 c-5 161 -17 269 -38 338 l-12 40 17 48 c9 26 16 60 16 75 0 15 5 31 10 34 6 3 10 19 10 34 0 38 11 93 18 86 3 -2 9 -24 13 -47z" data-original-id="PosteriorTorsoMain"/>
  <path id="UpperBackLeft" d="M14271 6406 l-33 -34 4 -18 c8 -41 85 8 91 58 l2 22 -15 3 c-9 2 -30 -12 -49 -31z" data-original-id="PosteriorUpperBackLeft"/>
  <path id="UpperBackRight" d="M16386 6431 c-8 -12 11 -61 23 -61 5 0 13 -9 16 -20 12 -37 45 -18 45 25 0 32 -71 78 -84 56z" data-original-id="PosteriorUpperBackRight"/>
  <path id="LeftPosteriorShoulder" d="M14353 6344 l-6 -17 16 -12 16 -11 -20 -12 c-23 -15 -17 -29 18 -43 l26 -10 33 11 34 12 0 15 c0 8 -15 30 -34 49 l-34 34 -21 0 c-12 0 -24 -7 -28 -16z" data-original-id="PosteriorShoulderLeft"/>
  <path id="RightPosteriorShoulder" d="M16308 6352 c-22 -9 -58 -56 -58 -76 l0 -16 26 -11 27 -10 33 11 c33 11 44 32 24 45 l-11 7 12 14 c25 31 -8 54 -53 36z" data-original-id="PosteriorShoulderRight"/>
  <path id="LeftPosteriorUpperArm" d="M14932 3318 c-7 -7 -12 -19 -12 -27 0 -9 -7 -25 -15 -35 -18 -24 -20 -77 -3 -94 l12 -12 13 11 c7 7 13 20 13 31 0 11 7 26 15 34 19 19 20 78 2 93 l-13 11 -12 -12z" data-original-id="PosteriorUpperArmLeft"/>
  <path id="RightPosteriorUpperArm" d="M15736 3314 c-3 -9 -6 -36 -6 -60 l0 -45 25 -25 c39 -39 62 3 36 68 -5 13 -12 35 -15 51 l-6 27 -14 0 c-8 0 -17 -7 -20 -16z" data-original-id="PosteriorUpperArmRight"/>
  <path id="LeftPosteriorHand" d="M15112 3308 c-15 -15 -16 -92 -2 -119 l11 -19 21 0 21 0 -7 38 c-3 20 -6 46 -6 58 0 11 -6 28 -13 37 l-12 18 -13 -13z" data-original-id="PosteriorHandLeft"/>
  <path id="RightPosteriorHand" d="M15555 3293 c-4 -15 -13 -41 -22 -56 l-15 -28 6 -25 c8 -29 31 -31 46 -4 6 11 8 20 5 20 -3 0 2 11 10 24 l16 25 -3 33 -3 33 -17 3 -17 3 -6 -28z" data-original-id="PosteriorHandRight"/>
  <!-- End far_right_body_view -->
  <!-- Center-right body view and details -->
  <path id="TorsoFront" d="M10548 9391 c-31 -4 -63 -12 -70 -19 -6 -6 -20 -12 -30 -12 -10 0 -21 -7 -24 -15 -4 -8 -14 -15 -23 -15 -36 0 -161 -153 -161 -197 0 -10 -5 -24 -11 -30 l-12 -12 -5 -103 -5 -103 -13 -8 -14 -8 0 -84 0 -84 13 -13 c8 -7 17 -30 21 -50 3 -19 16 -46 29 -60 12 -13 31 -37 42 -53 l20 -30 0 -139 0 -138 -47 -42 c-44 -39 -75 -57 -151 -89 -17 -8 -49 -22 -70 -31 -21 -9 -47 -16 -58 -16 -11 0 -30 -5 -42 -12 -12 -7 -44 -15 -72 -19 -84 -11 -186 -62 -249 -125 -34 -35 -96 -129 -96 -147 0 -8 -7 -20 -15 -27 l-15 -12 0 -36 c0 -19 -6 -43 -14 -51 l-14 -16 -3 -100 c-1 -55 -2 -172 0 -260 l2 -160 -15 -85 -16 -85 0 -129 0 -128 -17 -52 c-9 -28 -18 -55 -20 -61 -2 -5 -12 -23 -23 -40 -11 -16 -24 -40 -29 -52 -5 -11 -15 -24 -20 -28 -6 -3 -11 -14 -11 -24 0 -10 -7 -24 -15 -31 -8 -7 -15 -23 -15 -36 0 -12 -4 -25 -9 -28 -17 -11 -80 -229 -81 -281 0 -16 -7 -41 -15 -55 -8 -14 -14 -40 -15 -58 0 -18 -7 -49 -15 -69 -8 -19 -15 -46 -15 -58 0 -12 -7 -39 -15 -58 -8 -20 -15 -51 -15 -69 0 -18 -7 -42 -15 -52 l-15 -20 0 -42 0 -42 -14 -11 c-8 -6 -16 -24 -19 -39 -7 -37 -34 -113 -68 -185 -7 -15 -33 -40 -58 -56 -69 -43 -166 -140 -190 -191 -30 -62 -44 -84 -58 -93 -7 -4 -13 -15 -13 -24 0 -15 -18 -56 -54 -121 -7 -12 -11 -34 -8 -48 l5 -26 33 -15 33 -16 35 17 c20 9 43 28 52 42 9 13 20 24 26 24 l9 0 -7 -204 -7 -203 22 -22 c11 -11 28 -21 36 -21 8 0 21 -13 30 -30 l16 -30 38 0 39 0 12 15 c7 8 23 15 35 15 30 0 69 32 85 70 l12 30 17 0 c32 0 101 103 101 153 1 12 7 33 15 47 8 14 14 39 15 56 0 17 7 48 15 67 8 20 15 51 15 69 0 18 7 51 15 73 l14 40 1 122 c0 67 4 124 9 127 5 3 28 44 51 91 23 47 46 88 51 91 5 3 9 12 9 20 0 8 14 33 30 56 17 22 30 47 30 55 0 7 4 13 9 13 5 0 13 10 17 22 6 20 39 73 54 88 7 7 28 41 40 65 6 11 19 34 30 50 10 17 29 50 42 75 13 25 29 51 36 58 6 7 12 21 12 31 0 9 5 22 12 29 12 12 36 71 45 112 3 14 10 30 15 37 5 7 13 36 18 65 5 29 13 76 19 103 12 63 29 189 37 283 l6 73 19 -17 19 -17 0 -33 c0 -18 7 -63 16 -101 l16 -68 -5 -55 c-5 -64 -23 -156 -43 -220 l-14 -45 0 -111 0 -112 -15 -28 c-8 -16 -15 -42 -15 -59 0 -16 -7 -52 -15 -79 -8 -27 -15 -68 -15 -92 0 -23 -5 -55 -11 -71 -6 -15 -15 -89 -20 -163 -4 -74 -12 -192 -18 -261 l-11 -127 11 -98 c6 -55 14 -157 18 -229 3 -71 11 -137 16 -145 5 -8 13 -46 16 -85 5 -68 20 -140 41 -200 6 -16 13 -51 17 -78 4 -26 13 -53 19 -59 7 -7 12 -29 12 -50 0 -20 6 -52 14 -70 23 -54 67 -190 77 -238 5 -24 14 -49 19 -54 6 -6 10 -33 10 -61 1 -27 5 -81 10 -120 l10 -70 -11 -125 c-6 -69 -16 -134 -21 -144 -6 -11 -14 -45 -18 -75 -5 -31 -13 -74 -18 -96 -6 -22 -15 -85 -21 -140 l-11 -100 14 -116 c8 -64 19 -126 25 -137 6 -11 11 -33 11 -49 0 -29 10 -64 56 -193 14 -41 29 -89 31 -107 3 -18 11 -38 19 -44 8 -6 14 -26 14 -44 l0 -33 15 -12 c8 -7 15 -22 15 -34 0 -12 7 -31 15 -42 8 -10 15 -28 15 -39 0 -11 6 -29 14 -40 24 -36 34 -168 24 -319 l-6 -79 -16 -9 c-9 -5 -16 -14 -16 -20 0 -21 -102 -138 -121 -138 -5 0 -18 -19 -30 -42 l-21 -41 15 -32 15 -32 54 -18 53 -18 120 -4 c66 -1 148 -3 183 -4 l63 -1 23 21 c13 12 32 40 41 62 l18 40 24 -48 c13 -26 32 -54 41 -61 l17 -13 198 4 197 3 12 12 c7 7 22 12 34 12 12 0 27 7 34 15 l13 16 -1 45 0 44 -76 74 c-42 41 -76 80 -76 87 0 7 -7 21 -16 30 l-17 18 -9 68 c-5 37 -12 92 -15 121 l-5 53 16 40 c9 21 16 50 16 64 0 13 6 39 14 57 23 56 38 102 43 133 3 17 10 35 15 42 6 7 14 27 18 45 11 45 30 98 46 130 8 14 14 39 14 56 0 16 7 35 15 42 l15 12 0 37 c0 20 7 45 15 55 8 11 15 30 15 43 0 13 7 40 15 61 l16 37 0 212 0 212 -16 37 c-8 20 -15 51 -15 68 0 17 -6 40 -14 51 l-13 20 -5 87 -4 87 -13 15 -13 16 5 42 c3 24 10 61 16 83 6 22 11 74 11 116 l0 77 15 12 c8 7 15 24 15 39 1 14 7 37 15 51 8 14 15 39 15 55 0 17 7 39 15 49 8 11 15 36 15 57 l0 37 15 12 c8 7 15 23 15 35 0 12 7 39 15 58 8 20 15 49 15 64 0 15 7 37 15 47 l15 20 0 50 1 51 14 19 15 20 0 43 c0 24 6 72 14 106 54 231 53 890 0 1108 -8 31 -14 73 -14 93 0 19 -7 57 -16 83 l-17 48 -8 145 c-4 80 -15 177 -24 215 -9 39 -19 106 -22 150 l-5 80 21 99 c32 158 44 157 60 -4 18 -183 29 -257 40 -279 6 -11 11 -37 11 -58 1 -21 7 -49 15 -63 8 -14 14 -33 15 -43 0 -22 99 -231 111 -235 5 -2 9 -10 9 -17 0 -8 12 -31 26 -52 14 -21 30 -48 35 -60 5 -13 13 -23 19 -23 5 0 10 -6 10 -12 0 -14 70 -121 83 -126 4 -2 7 -12 7 -22 0 -10 5 -22 11 -25 5 -4 15 -17 20 -28 5 -12 18 -35 28 -52 11 -16 42 -74 70 -129 l51 -98 0 -114 0 -115 15 -36 c8 -19 15 -55 15 -80 0 -24 7 -60 15 -80 8 -19 15 -45 15 -57 0 -26 30 -113 60 -174 l21 -43 35 -21 c18 -11 34 -23 34 -27 0 -4 15 -24 34 -44 l34 -37 25 0 c13 0 30 -7 37 -15 l12 -15 38 0 38 0 17 26 c9 14 29 30 45 36 l29 10 11 33 11 33 -11 127 c-19 234 -14 272 27 217 11 -15 37 -33 57 -40 l37 -14 28 12 c16 6 33 22 39 35 l11 25 -17 30 c-9 16 -20 30 -24 30 -5 0 -8 12 -8 26 0 28 -22 72 -56 116 -12 15 -32 48 -45 75 -13 26 -33 57 -45 68 -12 11 -41 38 -65 60 -45 42 -72 60 -101 71 l-18 6 0 23 c0 12 -7 28 -15 35 -8 7 -15 18 -15 26 0 14 -20 66 -46 117 -8 16 -14 41 -14 55 0 15 -7 36 -15 46 -8 11 -15 31 -15 45 0 14 -6 46 -14 71 -8 25 -21 72 -29 105 -8 33 -20 80 -27 105 -6 25 -15 72 -19 105 -5 34 -13 70 -19 82 -7 12 -12 37 -12 55 -1 18 -7 44 -15 58 -8 14 -14 37 -15 51 0 14 -7 34 -15 45 -8 10 -15 31 -15 45 0 15 -7 32 -15 39 -8 7 -15 19 -15 26 0 13 -24 62 -60 119 -10 17 -27 46 -38 65 l-19 35 -11 100 c-6 55 -14 174 -17 263 -3 90 -10 184 -16 208 l-12 45 12 56 c6 31 11 122 11 202 l-1 146 -14 25 c-8 14 -14 37 -15 52 0 54 -129 248 -163 248 -3 0 -26 14 -50 30 -25 17 -52 30 -60 30 -8 0 -28 7 -43 15 -16 8 -47 15 -69 15 -22 0 -49 7 -59 15 -11 8 -30 15 -43 15 -20 0 -85 26 -192 78 -19 10 -57 38 -85 64 l-51 47 0 129 0 129 20 36 c11 20 23 37 27 37 9 0 48 83 48 102 0 8 4 18 9 24 5 5 12 47 16 94 l7 86 -16 13 -16 13 0 78 0 78 -16 53 c-30 101 -104 202 -167 229 -12 6 -29 14 -37 19 -71 41 -154 53 -272 42z m167 -71 c28 -7 57 -16 65 -21 8 -5 24 -13 35 -18 26 -12 115 -98 115 -111 0 -6 6 -21 12 -33 7 -12 17 -55 23 -96 l11 -74 -8 -61 c-4 -33 -5 -89 -2 -122 l6 -62 -15 -33 c-32 -68 -57 -145 -57 -172 l0 -28 -34 -52 c-35 -55 -60 -83 -116 -131 l-33 -29 -72 -5 -72 -4 -35 16 c-73 35 -188 175 -188 230 0 13 -12 57 -26 98 l-27 73 -9 130 c-5 72 -7 166 -4 209 l6 79 15 23 c8 13 15 30 15 37 0 17 98 117 115 117 7 0 18 7 25 15 7 8 24 15 39 16 14 0 42 6 61 14 40 15 82 14 155 -5z m164 -1035 c1 -16 7 -47 15 -68 l13 -39 50 -47 c28 -25 71 -57 97 -69 60 -31 63 -38 17 -46 l-39 -6 -5 -14 c-3 -8 0 -19 7 -25 l12 -10 159 -3 160 -4 35 -13 c19 -8 47 -20 62 -27 14 -8 32 -14 40 -14 8 0 42 -25 75 -55 l61 -55 19 -43 c47 -103 53 -119 53 -146 0 -15 7 -50 15 -77 19 -63 19 -122 0 -167 l-15 -36 0 -110 0 -110 12 -28 13 -28 5 -220 6 -220 13 -35 c8 -19 16 -39 18 -45 2 -5 12 -23 23 -40 11 -16 22 -37 26 -45 3 -8 10 -22 15 -30 5 -8 16 -32 25 -53 9 -20 25 -54 35 -74 11 -21 19 -44 19 -53 0 -8 7 -28 15 -44 8 -15 15 -45 15 -65 0 -21 7 -46 15 -57 8 -10 15 -38 15 -60 0 -23 7 -58 15 -77 8 -20 15 -51 15 -69 1 -18 7 -44 15 -58 8 -14 15 -43 15 -65 0 -22 7 -49 15 -59 8 -11 15 -36 15 -55 1 -20 7 -47 15 -61 8 -14 15 -36 15 -50 0 -14 7 -34 15 -44 8 -11 15 -31 15 -45 0 -14 7 -35 15 -45 8 -11 15 -28 15 -39 0 -10 6 -31 14 -45 8 -15 23 -46 34 -70 l20 -44 38 -20 c21 -11 66 -45 100 -76 l62 -55 23 -46 c13 -25 29 -52 37 -60 20 -21 62 -112 62 -136 0 -11 5 -26 12 -33 l12 -12 -20 0 c-21 0 -74 48 -74 66 0 6 -22 31 -49 56 l-49 46 -34 7 c-18 4 -50 20 -70 36 -20 16 -46 29 -57 29 l-21 0 0 -16 c0 -22 70 -82 105 -90 16 -4 40 -13 52 -21 l22 -15 5 -131 c3 -73 8 -178 11 -234 l6 -103 -9 0 c-20 0 -30 27 -37 98 l-7 73 17 20 18 19 -21 0 c-31 0 -47 58 -28 102 l8 17 -26 7 -25 6 -57 -18 -56 -17 -18 10 c-9 6 -37 14 -62 18 l-46 7 -7 -12 -7 -11 21 -23 c23 -25 25 -34 12 -55 l-9 -15 -16 13 -16 13 0 48 c0 26 -7 64 -15 83 -8 20 -15 58 -15 85 0 27 -7 68 -15 91 l-14 41 1 90 2 89 -17 19 c-9 10 -17 26 -17 35 0 9 -4 19 -10 22 -5 3 -21 30 -35 58 -14 29 -30 59 -35 67 -5 8 -25 43 -46 78 -20 34 -41 62 -45 62 -5 0 -9 8 -9 19 0 10 -7 24 -15 31 -8 7 -15 17 -15 22 0 6 -13 27 -28 47 -16 20 -32 43 -35 51 -4 8 -16 29 -27 45 -11 17 -25 42 -31 58 -6 15 -15 27 -20 27 -5 0 -9 8 -9 19 0 10 -7 24 -15 31 -8 7 -15 20 -15 30 0 10 -7 23 -15 30 -8 7 -15 20 -15 29 0 10 -7 26 -15 37 -8 10 -15 31 -15 45 0 14 -7 34 -15 45 l-14 19 -1 47 c0 26 -6 67 -14 90 -8 24 -17 89 -20 145 -6 105 -16 168 -43 265 l-16 58 7 107 c4 60 11 156 15 216 l7 107 12 12 c14 14 16 54 2 63 -15 9 -49 -17 -59 -46 -8 -25 -46 -48 -57 -36 -3 3 -29 -10 -57 -29 -28 -19 -66 -39 -84 -45 l-33 -11 -58 18 c-31 10 -67 24 -79 32 -27 17 -53 10 -53 -14 0 -22 28 -54 47 -54 7 0 25 -7 38 -16 l25 -16 73 3 73 4 44 33 c24 17 54 32 67 32 l23 0 0 -99 c0 -55 -4 -111 -10 -125 l-10 -26 11 -27 10 -26 -16 -39 c-8 -21 -15 -52 -15 -68 0 -16 -4 -31 -9 -34 -5 -4 -12 -25 -16 -49 -3 -23 -13 -57 -22 -75 l-15 -34 0 -161 0 -162 16 -39 16 -38 0 -112 -1 -111 -14 -19 c-8 -11 -15 -27 -15 -37 0 -9 -7 -22 -15 -29 -8 -7 -15 -23 -15 -37 l0 -24 17 -6 17 -7 4 13 c2 7 15 24 28 39 l23 27 1 -50 c0 -27 7 -63 15 -79 l15 -28 0 -82 1 -81 14 -40 15 -40 0 -385 0 -385 -15 -40 c-8 -22 -14 -71 -15 -110 l-1 -70 -14 -25 c-8 -14 -14 -39 -15 -56 0 -17 -7 -51 -15 -74 -8 -23 -15 -57 -15 -74 -1 -17 -7 -42 -15 -56 -8 -14 -15 -41 -15 -60 0 -19 -7 -44 -15 -54 -8 -11 -15 -31 -15 -45 -1 -14 -7 -37 -15 -51 -8 -14 -15 -36 -15 -50 0 -14 -7 -34 -15 -44 -8 -11 -15 -34 -15 -52 0 -18 -6 -45 -14 -61 -25 -51 -38 -126 -43 -265 l-6 -138 18 -112 c9 -62 23 -131 31 -153 8 -23 14 -59 14 -80 0 -22 7 -84 17 -137 l16 -98 -16 -97 c-10 -54 -17 -114 -18 -133 0 -19 -6 -46 -14 -60 -8 -14 -14 -35 -15 -47 0 -12 -6 -37 -14 -55 -8 -18 -22 -60 -32 -93 -9 -33 -23 -74 -31 -92 -7 -17 -13 -39 -13 -50 0 -10 -7 -27 -15 -37 -8 -11 -15 -29 -15 -41 0 -12 -7 -30 -15 -41 -8 -10 -15 -33 -15 -50 0 -17 -7 -37 -15 -44 l-15 -12 0 -37 c0 -20 -6 -46 -14 -56 l-14 -20 -3 -145 c-3 -142 3 -190 22 -190 5 0 9 -7 9 -14 0 -16 47 -90 87 -140 l24 -29 -6 -15 c-3 -8 1 -23 10 -32 l15 -17 -6 -16 c-7 -19 -24 -13 -24 9 0 18 -40 64 -57 64 -15 0 -18 -36 -3 -45 12 -8 6 -68 -7 -72 -6 -2 -13 14 -17 37 -6 37 -39 90 -57 90 -14 0 -19 -33 -7 -47 7 -9 13 -31 14 -49 l1 -34 -19 0 c-10 0 -20 6 -22 13 -20 64 -41 105 -58 116 l-21 13 -21 -25 c-11 -13 -29 -27 -39 -31 -30 -10 -13 -31 29 -36 l39 -5 0 -20 0 -20 -29 -3 c-15 -2 -39 -1 -52 2 l-24 6 -6 28 c-4 15 -11 33 -17 40 l-10 12 2 103 2 102 17 47 16 47 -17 19 c-21 23 -21 40 -3 78 l14 29 17 191 17 192 -12 148 c-6 82 -16 192 -21 244 -5 52 -12 131 -15 175 l-6 80 16 107 c9 59 21 119 26 133 6 15 10 66 10 114 l0 87 -31 89 -32 90 2 385 2 386 -12 154 -13 155 3 220 2 220 15 10 c9 6 28 20 42 32 l27 23 -11 17 -12 18 -18 -3 c-11 -2 -26 -10 -35 -18 -8 -8 -29 -14 -46 -14 l-31 0 -6 15 -5 15 -25 0 c-14 0 -28 -5 -31 -10 -8 -13 32 -70 50 -70 8 0 16 -8 19 -17 9 -33 4 -408 -7 -458 l-10 -50 -7 -500 -7 -500 -15 -61 c-9 -33 -21 -71 -29 -85 l-13 -24 1 -105 1 -105 17 -40 17 -40 0 -220 -1 -220 -15 -60 -16 -59 0 -246 1 -245 10 -45 c6 -25 14 -71 19 -104 4 -32 13 -63 19 -69 17 -17 13 -34 -8 -40 l-19 -5 10 -53 c5 -29 14 -61 19 -71 5 -10 10 -56 11 -103 l1 -85 -19 -38 c-24 -48 -31 -52 -80 -52 l-42 0 -12 15 -13 16 10 10 c6 6 29 13 52 16 49 7 52 17 11 35 -16 7 -30 18 -30 24 0 15 -31 27 -41 17 -17 -19 -49 -90 -49 -110 l0 -23 -20 0 -20 0 0 40 0 40 10 0 c6 0 10 11 10 25 l0 25 -14 0 c-19 0 -56 -47 -56 -71 0 -21 -8 -23 -30 -9 l-15 9 13 13 c6 6 12 22 12 35 l0 23 -14 0 c-8 0 -16 -7 -20 -15 -3 -8 -12 -15 -21 -15 l-15 0 0 19 c0 10 17 40 38 67 39 52 48 65 83 129 l22 40 -2 117 -3 117 -18 73 c-19 77 -34 122 -56 176 -8 18 -14 41 -14 50 0 10 -7 27 -15 38 -8 10 -15 28 -15 40 0 11 -7 29 -15 40 -8 10 -15 30 -15 44 0 15 -5 31 -12 38 -6 6 -14 30 -18 54 -5 24 -13 58 -19 76 -6 17 -16 47 -22 65 -6 17 -15 55 -18 82 -4 28 -12 60 -19 72 l-12 22 0 136 0 136 15 36 c8 19 15 52 15 73 0 21 7 57 15 80 8 23 15 53 15 67 0 13 7 46 16 72 l16 49 -4 195 -3 196 -12 13 c-7 6 -13 23 -13 38 -1 14 -7 36 -15 50 -8 14 -14 37 -15 51 0 15 -6 32 -14 38 -8 7 -16 31 -19 54 -2 23 -9 57 -16 75 -30 85 -34 99 -38 132 -3 19 -10 41 -16 49 -7 7 -14 39 -18 70 -4 31 -11 70 -17 86 -11 32 -25 111 -49 285 l-15 105 -5 250 -5 250 17 160 c9 88 23 195 31 238 8 42 14 92 14 110 0 17 8 53 18 79 l18 47 19 -35 19 -35 20 3 21 3 -3 25 c-1 14 -7 27 -12 28 -6 2 -10 11 -10 21 0 9 -5 22 -10 27 -6 6 -18 39 -27 74 l-16 63 12 71 c7 39 19 93 28 121 l16 49 0 136 -1 135 -16 39 c-9 21 -16 50 -16 65 0 14 -7 39 -15 55 l-16 29 -4 155 c-3 85 -10 171 -16 191 -6 20 -9 50 -7 66 l3 30 26 -2 c15 -1 48 -18 74 -37 l47 -36 73 0 74 0 43 22 c24 12 51 30 62 40 l19 17 -6 15 c-8 19 -45 21 -66 3 -9 -7 -42 -22 -74 -32 l-58 -19 -52 18 c-29 10 -54 21 -57 25 -16 19 -73 52 -85 48 -14 -6 -55 32 -55 51 0 6 -11 19 -26 28 l-25 17 -11 -11 -12 -12 12 -22 c27 -55 28 -67 37 -313 l7 -180 -16 -44 c-9 -24 -16 -58 -16 -76 0 -18 -7 -49 -15 -68 l-15 -36 0 -94 0 -95 -15 -35 c-8 -20 -15 -49 -15 -65 0 -16 -7 -46 -15 -65 -8 -20 -15 -49 -15 -64 0 -15 -7 -37 -15 -47 -8 -11 -15 -30 -15 -42 0 -13 -4 -25 -9 -29 -6 -3 -21 -29 -36 -58 -14 -28 -34 -65 -45 -82 -11 -16 -24 -39 -29 -50 -5 -11 -20 -36 -33 -55 -13 -19 -27 -42 -31 -50 -4 -8 -16 -28 -27 -45 -11 -16 -23 -37 -27 -45 -4 -8 -19 -33 -35 -54 -15 -21 -28 -45 -28 -53 0 -7 -7 -16 -15 -19 -8 -4 -15 -14 -15 -24 0 -11 -4 -22 -10 -25 -5 -3 -22 -31 -36 -60 -14 -30 -29 -57 -35 -60 -5 -4 -9 -14 -9 -24 0 -10 -6 -24 -14 -30 -17 -15 -29 -65 -26 -115 3 -58 -19 -232 -37 -298 l-16 -58 -23 6 -23 6 -56 -17 -55 -18 -28 12 c-15 7 -48 13 -73 14 l-44 2 3 -42 c2 -23 -2 -51 -8 -64 -7 -12 -14 -63 -16 -113 l-4 -91 -21 -20 -21 -20 6 155 c3 85 8 193 10 240 l5 84 23 17 c12 10 37 20 54 24 l31 5 37 37 c59 60 25 87 -42 33 -21 -17 -55 -35 -75 -41 -43 -12 -96 -57 -143 -121 -31 -44 -64 -63 -64 -38 0 6 4 10 8 10 5 0 15 26 22 58 l14 57 43 59 c24 32 43 64 43 71 0 7 14 26 31 42 18 15 47 42 65 60 18 17 42 34 53 38 31 10 77 59 98 107 46 102 53 120 53 141 0 12 7 31 15 41 8 11 15 30 15 43 0 12 6 37 14 55 15 35 34 108 46 173 4 22 12 53 19 68 6 16 11 44 11 62 0 19 6 49 14 67 15 36 35 111 45 173 4 22 13 50 19 62 7 12 12 36 12 53 0 17 7 38 15 46 8 9 15 26 15 38 0 13 7 29 15 36 8 7 15 21 15 31 0 10 4 20 9 23 5 4 19 27 32 54 12 26 34 65 48 87 14 22 28 60 32 85 4 25 12 74 18 110 6 36 11 131 11 211 l0 146 15 43 c19 54 19 143 0 206 -19 63 -19 157 0 220 8 27 15 60 15 72 0 23 7 41 51 137 20 44 99 135 117 135 7 0 12 3 12 8 0 7 46 28 130 62 l35 14 167 5 c91 4 170 9 173 13 15 15 -5 36 -39 42 -43 8 -46 20 -8 35 65 27 172 111 172 135 0 8 7 27 15 42 8 16 15 49 15 74 l0 44 58 -56 c67 -67 111 -88 187 -88 l56 0 42 19 c24 11 65 43 92 73 l50 53 7 -15 c4 -8 7 -28 7 -45z m-1701 -3672 c-7 -8 -14 -35 -15 -59 -2 -24 -12 -58 -23 -76 l-19 -32 -6 15 c-3 8 2 39 11 69 8 30 18 71 21 90 3 19 12 41 21 48 l17 13 3 -26 c2 -14 -2 -33 -10 -42z m-198 32 l12 -15 -5 -42 c-4 -24 -8 -59 -11 -78 -14 -116 -47 -216 -67 -204 l-10 6 7 106 c3 59 10 112 14 117 5 6 11 36 15 68 l7 57 13 0 c7 0 18 -7 25 -15z m120 -14 c0 -10 -7 -32 -15 -47 -8 -16 -15 -48 -15 -71 0 -23 -4 -44 -9 -48 -6 -3 -13 -25 -16 -50 l-7 -44 -19 -17 -19 -17 -1 14 c-2 30 3 75 11 84 4 6 11 41 15 80 8 80 19 113 43 131 20 15 32 9 32 -15z m3074 -34 c18 -60 37 -153 43 -214 l5 -43 -10 0 c-17 0 -29 23 -37 67 -4 24 -11 45 -16 49 -5 3 -9 21 -9 40 0 19 -7 57 -16 85 -9 27 -14 55 -10 64 l5 15 15 -6 c8 -3 22 -29 30 -57z m112 16 l7 -46 -11 -17 -10 -17 15 -16 15 -15 11 -85 c5 -47 7 -93 3 -103 l-7 -18 -16 17 -17 16 -14 73 c-26 141 -35 207 -28 232 l6 26 20 0 19 0 7 -47z m-201 -59 c8 -20 15 -53 15 -73 l-1 -36 -18 37 c-23 45 -33 86 -26 98 10 16 14 12 30 -26z m-1462 -1420 c4 -4 7 -20 7 -35 0 -14 8 -50 17 -79 l17 -52 -14 -61 c-7 -34 -17 -84 -21 -112 -4 -27 -13 -77 -19 -110 l-12 -60 6 -120 c3 -66 11 -138 17 -160 l12 -40 1 -350 1 -350 -15 -25 -14 -25 -2 -95 c-2 -52 -3 -115 -4 -140 l-1 -45 -11 25 -10 25 6 77 5 77 -14 48 c-7 26 -19 111 -26 188 l-12 140 7 165 c4 91 11 215 17 275 5 61 12 164 15 229 l7 119 -12 71 c-7 39 -17 94 -23 121 -5 28 -12 77 -15 109 l-5 60 17 55 c22 74 32 109 41 151 l8 35 10 -52 c6 -28 14 -55 19 -59z" data-original-id="AnteriorTorsoMain"/>
  <path id="RightShoulder" d="M10426 8944 c-74 -20 -90 -52 -28 -55 l27 -1 -17 -5 -17 -4 -6 -30 c-8 -37 -7 -38 46 -50 l42 -10 33 11 34 12 0 23 c0 13 4 25 9 27 5 2 13 15 16 30 l7 27 -34 21 c-37 23 -44 23 -112 4z" data-original-id="RightShoulder"/>
  <path id="LeftShoulder" d="M10713 8940 l-23 -9 0 -20 c0 -11 5 -23 11 -26 6 -4 9 -21 7 -38 l-3 -32 35 -12 35 -12 40 5 c68 10 80 30 40 69 l-24 25 30 0 30 0 -3 18 -3 17 -35 12 c-41 14 -106 15 -137 3z" data-original-id="LeftShoulder"/>
  <path id="RightUpperArm" d="M10646 8834 c-10 -26 -7 -144 5 -165 l11 -21 -18 -13 -18 -12 -34 14 -35 14 -8 -13 c-14 -20 -6 -42 16 -46 11 -2 30 -8 43 -14 l22 -12 12 12 c7 7 24 12 38 12 48 0 65 37 33 72 l-17 19 -4 62 c-5 84 -30 134 -46 91z" data-original-id="RightUpperArm"/>
  <path id="LeftUpperArm" d="M10585 8531 c-3 -5 -19 -12 -35 -16 l-30 -7 0 -19 0 -19 25 -10 c14 -5 25 -16 25 -24 0 -17 22 -26 65 -26 l34 0 13 16 c7 8 23 25 36 36 30 29 28 34 -20 58 -44 21 -103 27 -113 11z" data-original-id="LeftUpperArm"/>
  <path id="RightForearm" d="M10080 7252 c-23 -8 -39 -34 -40 -64 l0 -28 20 -20 c41 -41 100 -7 100 58 0 31 -49 65 -80 54z" data-original-id="RightForearm"/>
  <path id="LeftForearm" d="M11107 7236 l-27 -22 0 -25 0 -26 23 -21 c29 -27 47 -28 81 -1 l26 20 0 22 c-1 27 -29 62 -56 69 l-20 5 -27 -21z" data-original-id="LeftForearm"/>
  <path id="RightHand" d="M9564 6495 c-8 -20 4 -35 27 -35 11 0 31 -7 44 -16 l24 -16 21 7 c47 15 -15 75 -79 75 l-32 0 -5 -15z" data-original-id="RightHand"/>
  <path id="LeftHand" d="M11571 6497 c-13 -6 -29 -20 -35 -29 l-11 -17 13 -13 13 -13 30 18 c17 9 38 17 48 17 23 0 41 19 34 36 l-5 14 -32 0 c-17 0 -42 -6 -55 -13z" data-original-id="LeftHand"/>
  <path id="Chest" d="M10562 6127 c-12 -13 -22 -35 -22 -49 l0 -26 25 -16 c13 -9 34 -16 45 -16 11 0 32 7 45 16 l25 16 0 29 0 29 -20 20 -20 20 -28 0 -29 0 -21 -23z" data-original-id="Chest"/>
  <path id="UpperAbdomen" d="M11013 3364 l6 -39 -14 -19 -15 -20 0 -76 0 -77 -15 -30 c-28 -57 7 -86 41 -35 l19 27 7 90 c4 50 10 111 13 136 l7 46 -28 17 -27 18 6 -38z" data-original-id="UpperAbdomen"/>
  <path id="LowerAbdomen" d="M10146 3377 l-19 -14 8 -39 c3 -21 9 -77 11 -124 l5 -85 22 -47 c22 -49 40 -60 51 -32 10 25 7 47 -9 77 l-15 29 0 76 c-1 145 -15 187 -54 159z" data-original-id="LowerAbdomen"/>
  <path id="PelvicArea" d="M10754 3254 c-4 -14 -3 -48 0 -76 l7 -51 35 -54 35 -55 14 12 c17 14 20 46 6 54 -19 12 -51 93 -51 128 0 67 -32 97 -46 42z" data-original-id="PelvicArea"/>
  <path id="RightThigh" d="M10396 3244 c-3 -9 -6 -30 -6 -47 -1 -18 -7 -43 -15 -57 -17 -30 -19 -66 -3 -76 l11 -7 13 19 c7 10 19 25 25 33 15 16 24 91 15 125 -7 29 -31 35 -40 10z" data-original-id="RightThigh"/>
  <!-- End center_right_body_view -->
  <!-- Lower-left head/profile views and details -->
  <path id="LeftProfileHead" d="M5467 8423 c-4 -3 -7 -21 -7 -39 l0 -33 27 -21 c52 -40 70 0 28 61 -28 39 -36 45 -48 32z" data-original-id="LeftProfileHead"/>
  <path id="RightProfileHead" d="M6140 8129 c-30 -12 -75 -26 -100 -33 -25 -7 -56 -18 -67 -25 -12 -6 -31 -11 -42 -11 l-19 0 31 -49 32 -48 31 -12 c17 -6 37 -11 46 -11 21 0 45 -30 50 -60 l3 -25 40 -7 c22 -4 52 -10 68 -14 l27 -6 0 20 c0 11 -7 25 -15 32 l-15 13 17 13 c32 24 158 10 190 -21 8 -8 29 -15 48 -15 l33 0 6 15 c6 17 42 20 51 5 10 -16 40 -12 68 10 l26 21 7 36 7 35 -14 9 c-8 5 -26 6 -41 3 -31 -6 -74 5 -160 43 l-58 26 0 29 0 28 -26 10 c-14 6 -58 10 -97 10 l-72 -1 -55 -20z m236 -144 c10 -8 26 -15 35 -15 14 0 70 -50 56 -50 -3 0 -27 11 -53 25 l-47 25 -95 0 -94 0 12 15 12 15 77 0 77 0 20 -15z" data-original-id="RightProfileHead"/>
  <path id="ForeheadLeft" d="M1620 8013 c0 -24 4 -43 9 -43 6 0 36 -22 68 -48 32 -27 72 -57 88 -67 17 -11 34 -25 38 -32 4 -7 29 -19 55 -27 59 -18 123 -45 141 -59 14 -12 56 -16 148 -16 l53 0 52 35 c29 18 68 36 88 39 19 3 58 17 87 30 l52 24 20 39 20 39 -23 22 -22 21 -12 -12 -12 -12 -22 12 c-13 6 -38 14 -56 17 l-32 7 -49 -17 c-27 -9 -57 -25 -67 -36 -26 -28 -79 -49 -126 -49 l-40 0 -26 20 c-15 12 -51 36 -81 55 l-53 35 -47 0 c-25 0 -86 7 -134 14 l-89 15 -14 18 -13 18 -1 -42z" data-original-id="ForeheadLeft"/>
  <path id="ForeheadRight" d="M6138 7812 c-34 -7 -7 -50 55 -89 l41 -26 58 1 c94 1 123 27 67 61 l-31 19 -66 7 c-37 4 -76 12 -87 19 -11 7 -28 10 -37 8z" data-original-id="ForeheadRight"/>
  <path id="LeftEye" d="M1812 5601 l-14 -8 17 -7 c9 -3 68 -6 130 -6 l114 0 6 10 6 10 -28 1 c-15 0 -71 3 -123 5 -52 2 -101 0 -108 -5z" data-original-id="EyeLeft"/>
  <path id="RightEye" d="M1999 4891 c-8 -5 -50 -13 -93 -16 -43 -3 -91 -12 -106 -20 -16 -8 -39 -15 -51 -15 -22 0 -100 -24 -156 -47 -17 -7 -35 -13 -41 -13 -5 0 -12 -7 -16 -15 l-5 -15 -29 0 c-16 0 -35 -7 -42 -15 -7 -8 -21 -15 -31 -15 -11 0 -19 -4 -19 -10 0 -5 -12 -13 -27 -16 -16 -4 -30 -10 -33 -14 -3 -3 -23 -17 -45 -30 -22 -13 -42 -27 -45 -30 -3 -3 -27 -23 -55 -45 -50 -40 -78 -67 -145 -141 -37 -40 -140 -204 -140 -222 0 -6 -8 -25 -17 -44 -29 -58 -31 -63 -51 -149 -11 -46 -26 -132 -32 -191 l-12 -107 12 -93 c7 -51 19 -113 26 -137 8 -25 14 -63 14 -86 0 -50 17 -104 33 -107 7 0 32 -1 56 -2 l45 -1 23 -34 23 -34 0 -88 c0 -94 11 -139 34 -139 24 0 37 95 15 117 -6 6 -14 28 -19 49 l-9 38 35 61 c41 75 42 78 4 70 l-30 -7 0 24 c0 13 -3 33 -6 45 l-6 23 17 6 c9 4 20 3 24 -2 8 -12 78 -44 96 -44 36 0 95 46 95 74 l0 21 -45 28 c-25 15 -50 27 -56 27 -5 0 -28 17 -52 38 -23 22 -73 56 -110 77 -80 44 -84 50 -68 118 7 29 13 81 15 117 1 36 7 76 13 90 6 14 8 40 6 58 l-5 32 12 15 12 15 -5 29 -6 29 19 17 20 18 0 32 0 33 15 12 15 12 0 34 0 33 20 6 c11 3 20 10 20 15 0 11 98 124 111 129 17 6 88 85 89 99 0 6 5 12 12 12 7 0 29 16 50 37 38 37 93 64 139 66 14 1 33 10 43 19 9 10 36 22 59 28 23 6 51 16 62 22 59 33 120 51 146 43 l20 -7 14 19 14 18 12 -12 c16 -16 65 -17 74 -3 l6 10 51 -6 51 -7 -6 22 -5 21 23 0 c13 0 25 -5 27 -11 l4 -11 72 -4 c40 -2 82 -8 92 -14 l20 -10 25 6 26 7 15 -21 15 -21 27 5 28 6 13 -16 c8 -9 24 -16 36 -16 12 0 28 -7 35 -15 l12 -15 23 6 23 6 6 -11 c4 -6 18 -11 30 -11 13 0 29 -7 36 -15 6 -8 22 -17 33 -21 23 -7 54 -39 97 -99 14 -19 31 -35 39 -35 7 0 44 -32 82 -70 l68 -70 7 -35 c3 -19 12 -39 20 -46 l14 -11 -6 -24 -6 -24 27 -32 27 -32 -5 -35 -4 -36 15 -22 c8 -13 23 -23 33 -23 l19 0 0 -24 c0 -13 -7 -29 -15 -36 l-15 -12 10 -18 c6 -10 10 -28 10 -39 l0 -21 15 0 c8 0 15 -7 15 -15 0 -8 -6 -15 -14 -15 -27 0 -27 -19 -1 -75 14 -31 25 -66 25 -80 0 -13 5 -27 10 -30 l10 -6 -8 -17 c-13 -26 -14 -130 -3 -165 l11 -33 -20 -39 c-11 -22 -20 -51 -20 -65 0 -15 -3 -30 -7 -34 -4 -4 -9 -22 -10 -39 -1 -18 -5 -49 -9 -70 l-6 -39 12 -24 13 -23 -25 -38 c-14 -21 -34 -55 -43 -76 -10 -21 -26 -42 -37 -48 -11 -6 -26 -26 -34 -45 l-15 -35 -24 -11 -24 -11 12 -19 12 -20 -24 -16 c-13 -9 -34 -33 -47 -54 l-24 -38 -18 0 -18 0 -10 -37 -9 -38 -32 -3 c-44 -4 -56 -23 -59 -93 l-2 -59 -31 -35 c-35 -40 -37 -48 -16 -65 20 -17 19 -37 -6 -71 -11 -16 -18 -30 -15 -30 3 -1 9 -2 14 -3 18 -3 32 -19 32 -37 l0 -19 25 0 25 0 0 -25 0 -26 -15 -5 c-8 -4 -15 -15 -15 -27 0 -11 -9 -30 -19 -41 l-19 -21 8 -43 8 -43 21 -20 c11 -11 21 -28 21 -39 0 -10 5 -22 11 -25 6 -4 8 -14 4 -22 l-5 -16 16 -18 c8 -9 22 -47 31 -84 l15 -67 23 -20 23 -20 12 -66 c7 -37 18 -74 25 -82 16 -18 35 -85 35 -121 0 -15 7 -32 15 -39 8 -7 15 -20 15 -30 0 -10 7 -20 15 -24 l15 -5 0 -46 c0 -25 -7 -61 -14 -80 l-15 -35 -42 0 c-54 0 -42 -13 14 -16 23 -2 120 -10 215 -19 216 -19 221 -17 159 73 -152 216 -283 480 -318 641 l-19 85 0 117 0 117 16 64 c21 87 76 219 124 298 47 76 93 157 101 174 5 12 13 29 19 39 5 9 15 25 20 35 6 9 13 24 16 32 3 8 12 29 19 45 21 48 42 106 59 165 49 170 46 153 66 355 l9 89 -9 101 c-17 179 -30 269 -50 345 -12 41 -25 93 -31 115 -6 22 -14 44 -20 49 -5 6 -9 17 -9 25 0 9 -21 59 -48 111 -210 423 -570 644 -1082 666 l-115 5 -16 -10z" data-original-id="EyeRight"/>
  <path id="LeftEar" d="M5710 4889 c-144 -23 -248 -52 -347 -95 -17 -8 -34 -14 -37 -14 -43 0 -309 -200 -374 -282 -55 -70 -52 -65 -92 -128 -51 -80 -56 -88 -93 -165 -52 -108 -58 -124 -112 -317 -8 -29 -17 -80 -20 -113 -3 -33 -9 -82 -14 -110 -6 -27 -10 -108 -10 -180 l-1 -130 15 -60 c8 -33 14 -77 15 -98 0 -21 5 -48 12 -60 6 -12 15 -40 19 -62 4 -22 17 -65 29 -95 12 -30 25 -67 30 -83 11 -34 89 -190 122 -243 144 -229 196 -374 205 -577 l5 -107 -12 -33 c-6 -17 -15 -54 -20 -82 -7 -48 -14 -69 -48 -160 -18 -50 -104 -223 -135 -273 -13 -20 -27 -44 -30 -52 -9 -20 -33 -56 -84 -130 -75 -106 -76 -105 186 -83 l204 18 0 10 c0 5 -13 17 -28 25 -16 9 -33 23 -39 32 l-10 17 21 83 c38 149 54 203 64 213 5 5 9 17 9 27 0 10 14 45 30 78 17 33 30 70 30 84 0 13 9 43 20 67 11 24 20 54 20 65 0 12 6 27 13 33 l14 11 6 96 7 96 15 31 15 30 -9 11 c-4 6 -11 37 -15 69 l-6 57 10 0 c5 0 10 -9 10 -20 0 -27 16 -25 24 3 3 12 17 34 31 49 l25 27 0 26 0 25 -23 0 -23 0 0 34 0 33 -31 49 c-17 27 -36 67 -43 89 -21 67 -32 86 -70 126 -14 15 -34 37 -45 50 -11 13 -32 32 -47 42 -16 9 -28 22 -28 28 0 5 -15 33 -32 62 -18 29 -44 74 -58 101 -14 26 -31 50 -37 53 -7 3 -13 14 -13 26 0 11 -9 30 -19 41 -23 25 -30 78 -13 98 l12 15 -11 61 c-6 34 -15 62 -19 62 -4 0 -11 30 -14 68 -7 66 -8 79 -7 192 0 30 -1 84 -3 118 l-4 64 24 35 c13 20 24 45 24 57 0 12 7 34 15 50 l15 29 -12 14 -11 14 21 6 c28 7 29 29 2 36 -29 7 -25 27 6 27 l26 0 -4 12 c-3 7 -13 13 -24 13 l-19 0 -3 17 -3 16 20 7 c21 6 25 16 36 77 3 21 16 54 28 73 l22 34 19 1 19 0 -6 55 -6 55 29 20 c16 11 38 36 50 55 l21 34 54 31 c30 17 64 43 77 58 28 32 92 67 120 65 l20 -2 5 20 c6 21 28 26 39 7 l7 -11 12 16 c6 9 31 20 54 26 23 5 50 16 60 25 l18 16 46 0 c26 0 56 6 67 12 l20 13 30 -18 30 -18 5 13 5 13 103 0 c56 -1 108 -4 114 -8 6 -4 15 -3 18 3 l7 11 36 -7 c20 -4 44 -13 53 -20 8 -8 26 -14 39 -14 13 0 32 -8 42 -17 l19 -17 17 11 17 11 33 -20 c18 -11 48 -24 65 -28 67 -17 153 -56 172 -77 21 -22 70 -55 115 -75 23 -9 50 -48 50 -69 0 -12 93 -104 113 -112 9 -3 17 -13 17 -22 0 -8 9 -24 21 -36 l21 -21 0 -35 0 -34 23 -9 c13 -5 26 -14 30 -20 3 -5 11 -8 16 -5 l9 6 0 -57 c0 -56 6 -85 37 -194 9 -30 17 -87 18 -125 2 -39 6 -85 9 -102 l7 -32 -11 -20 c-6 -12 -36 -34 -68 -50 -31 -16 -73 -46 -92 -66 -19 -21 -53 -45 -75 -55 -22 -10 -52 -30 -68 -45 l-27 -26 10 -18 c5 -10 26 -29 47 -41 l38 -22 17 11 c10 6 26 11 36 11 10 0 27 7 38 15 10 8 25 15 32 15 l12 0 0 -50 0 -50 -25 0 -25 0 0 -18 c0 -9 11 -38 25 -64 29 -55 30 -63 9 -103 -8 -16 -17 -58 -19 -92 l-3 -63 16 0 17 0 18 53 c9 30 17 70 17 90 0 47 28 158 45 175 l12 14 48 -16 c59 -20 56 -24 66 77 5 46 15 112 24 148 l15 64 0 130 0 130 -16 90 c-27 147 -107 347 -165 408 -11 12 -27 33 -34 47 -23 45 -264 260 -290 260 -3 0 -40 20 -81 45 -40 25 -80 45 -88 45 -8 0 -27 6 -43 14 -101 50 -200 86 -239 86 -14 0 -33 4 -43 9 -54 29 -338 48 -451 30z" data-original-id="EarLeft"/>
  <path id="RightEar" d="M2225 3531 c-2 -5 13 -11 36 -15 l40 -6 61 -63 60 -64 15 -39 c8 -21 17 -80 20 -129 l5 -90 -42 -110 -42 -110 -110 -107 c-60 -58 -125 -114 -144 -123 l-35 -16 -30 6 -30 7 -30 40 c-16 23 -29 46 -29 52 0 6 -5 18 -10 26 l-10 15 -10 -15 c-17 -26 -11 -76 20 -151 33 -82 53 -104 112 -119 l40 -11 31 7 c88 19 307 223 307 286 0 11 11 46 24 77 13 31 32 101 41 156 l16 100 -11 45 c-6 25 -15 68 -20 95 l-8 50 -39 70 -38 70 -45 22 c-25 12 -50 26 -55 31 -15 12 -84 22 -90 13z" data-original-id="EarRight"/>
  <path id="UpperLip" d="M5624 3512 c-22 -18 -94 -117 -94 -129 0 -4 -9 -16 -19 -27 l-20 -21 -18 -80 -18 -80 2 -86 1 -86 15 -29 c8 -16 17 -49 21 -74 4 -24 11 -49 17 -56 5 -7 23 -38 40 -70 37 -73 72 -123 102 -143 12 -8 42 -32 66 -53 l44 -38 50 -15 50 -15 41 11 c23 6 53 17 67 25 l27 13 16 48 c9 26 20 76 23 111 l6 62 -16 0 -17 0 -22 -47 -23 -48 -25 -11 c-14 -7 -39 -10 -57 -7 l-32 5 -98 86 c-54 47 -115 108 -135 136 l-38 51 -30 93 -30 92 0 56 c0 58 16 135 35 169 35 63 52 84 96 118 27 21 49 43 49 48 0 16 -54 9 -76 -9z" data-original-id="UpperLip"/>
  <path id="LowerLip" d="M2043 3480 c-35 -21 -41 -41 -19 -59 20 -16 43 -4 55 30 19 54 12 59 -36 29z" data-original-id="LowerLip"/>
  <path id="Chin" d="M5900 3476 c0 -20 22 -56 34 -56 20 0 26 12 19 38 l-5 22 -24 0 c-13 0 -24 -2 -24 -4z" data-original-id="Chin"/>
  <path id="Jaw" d="M2115 3412 c-16 -11 -41 -40 -54 -65 l-23 -46 38 -38 c22 -21 46 -52 55 -69 l16 -30 36 -17 c19 -10 45 -30 56 -45 l20 -27 12 12 12 12 -7 34 c-8 45 -39 84 -81 101 l-33 14 -7 21 c-9 29 1 41 36 41 l30 0 5 15 c10 25 26 17 80 -40 29 -30 60 -55 68 -55 l16 0 0 23 c0 12 -13 45 -30 73 l-29 52 -33 20 -33 20 -60 7 -60 6 -30 -19z" data-original-id="Jaw"/>
  <path id="AnteriorNeck" d="M5740 3421 c-71 -15 -131 -78 -143 -151 -3 -19 -8 -48 -12 -65 l-6 -30 10 15 c20 31 137 150 148 150 6 0 14 -12 17 -26 l7 -25 28 6 29 6 7 -11 c9 -15 -12 -38 -55 -60 l-37 -19 -23 -55 -22 -56 6 -25 c9 -34 18 -31 39 14 l18 39 32 13 c34 14 97 76 97 96 0 7 9 17 20 23 l21 11 -7 52 -6 52 -23 24 -23 23 -43 3 c-24 2 -60 0 -79 -4z" data-original-id="AnteriorNeck"/>
  <path id="PosteriorNeck" d="M7128 3196 l4 -55 -26 -31 c-14 -18 -26 -42 -26 -55 0 -13 -7 -28 -15 -32 -8 -5 -24 -26 -34 -46 l-19 -38 5 -54 c8 -74 -2 -112 -42 -175 l-35 -55 5 -27 6 -27 -23 -11 c-13 -7 -31 -22 -40 -34 l-18 -21 -9 14 -10 15 9 16 c5 9 21 28 36 43 l27 27 -17 0 c-9 0 -16 -4 -16 -9 0 -5 -12 -11 -27 -13 l-28 -3 -3 -25 c-2 -13 -10 -29 -17 -35 -8 -5 -15 -26 -17 -45 l-3 -35 -22 -3 c-13 -2 -23 -9 -24 -15 -3 -32 4 -73 14 -86 l12 -14 -12 -4 c-19 -7 -16 -22 12 -55 14 -16 25 -38 25 -49 0 -47 42 -84 92 -81 l27 2 46 -45 c58 -56 56 -56 84 8 l23 53 29 17 29 16 0 38 c0 21 -5 45 -10 53 l-9 15 -13 -13 c-6 -6 -32 -12 -57 -12 l-44 0 -18 -16 -18 -16 -16 5 c-16 7 -20 34 -7 54 l7 11 65 5 66 4 41 26 41 26 11 32 c6 18 11 40 11 50 l0 19 -21 0 c-12 0 -35 -11 -51 -25 -17 -14 -43 -32 -59 -41 l-29 -15 -5 16 c-3 8 -7 22 -10 30 -7 24 -39 17 -70 -15 -16 -16 -34 -30 -41 -30 -24 0 -32 56 -13 91 l11 21 20 -19 20 -18 19 24 c10 13 19 31 19 40 0 15 78 106 85 99 1 -2 12 -22 24 -45 26 -52 33 -53 61 -8 27 44 40 51 123 65 l67 12 35 32 35 32 0 45 -1 44 -24 30 -24 30 -10 -10 c-5 -6 -11 -19 -13 -30 l-3 -19 -55 -28 c-30 -16 -72 -31 -92 -35 l-38 -6 -30 13 -30 12 -6 34 -6 33 25 45 25 44 -11 11 -11 11 21 21 21 21 22 -12 22 -12 34 7 34 6 0 -12 c0 -7 2 -10 5 -8 9 9 -19 84 -47 127 -15 24 -28 47 -28 52 0 5 -9 14 -21 20 l-20 11 3 21 c2 12 -2 23 -8 25 l-11 4 5 -55z" data-original-id="PosteriorNeck"/>
  <path id="LeftUnderEar" d="M817 3204 c-4 -4 -7 -15 -7 -25 0 -10 -6 -22 -13 -26 -16 -10 -77 -126 -77 -148 l0 -15 39 0 c22 0 43 -5 46 -10 4 -6 14 -8 24 -5 l17 5 21 -22 c31 -34 53 -83 53 -118 l0 -31 -37 -16 -37 -15 -50 7 c-59 7 -117 36 -144 70 -36 46 -72 16 -72 -59 l0 -33 19 -25 c26 -32 74 -55 143 -68 l57 -11 25 -30 c31 -37 26 -39 72 26 46 64 54 67 54 19 l0 -37 30 -49 c36 -58 36 -57 5 -87 -14 -13 -25 -32 -25 -42 0 -30 -62 -9 -119 40 -30 26 -41 19 -41 -27 l0 -37 18 -21 c26 -33 76 -52 153 -60 79 -8 82 -10 73 -59 -7 -40 -16 -43 -52 -15 l-26 21 -27 -6 -27 -6 -21 13 -21 13 -15 -20 -15 -20 6 -25 c3 -14 19 -36 35 -48 16 -13 36 -39 44 -58 l14 -34 22 0 21 0 37 40 36 40 39 -12 39 -12 34 39 c19 22 43 56 53 76 l19 36 -5 20 c-7 26 -48 45 -80 37 -13 -3 -35 -3 -48 0 l-23 6 -10 27 c-11 31 -12 87 -1 98 3 4 20 -3 37 -16 l31 -23 25 24 c30 28 31 40 5 73 -11 14 -20 32 -20 40 0 7 -8 21 -18 30 l-19 17 -35 0 -36 0 -26 30 c-14 17 -30 48 -35 68 -5 20 -15 56 -21 79 -6 23 -9 45 -8 50 12 44 -40 158 -97 212 -26 24 -32 46 -15 56 6 3 10 12 10 19 0 18 -24 48 -33 40z" data-original-id="UnderLeftEar"/>
  <path id="RightUnderEar" d="M2061 3161 c-13 -24 -15 -65 -6 -116 l7 -40 -21 -19 c-25 -22 -27 -58 -6 -76 l15 -12 15 12 c8 7 18 30 21 52 4 21 14 49 24 60 l16 21 36 -13 c52 -19 85 1 60 35 -12 18 -133 115 -143 115 -4 0 -13 -8 -18 -19z" data-original-id="UnderRightEar"/>
  <path id="Mouth" d="M5860 3154 c-40 -27 -110 -97 -110 -110 0 -17 24 -24 64 -17 l36 6 14 -13 c8 -6 18 -31 22 -55 3 -25 12 -49 20 -56 l13 -11 20 7 c28 9 31 35 8 73 l-19 33 6 47 c3 26 2 61 -2 77 l-8 30 -20 3 c-10 1 -30 -5 -44 -14z" data-original-id="Mouth"/>
  <path id="LeftCheek" d="M2303 2957 c-4 -8 -27 -26 -50 -42 -51 -33 -52 -35 -13 -35 l30 0 26 41 c14 22 23 43 21 46 -3 2 -9 -2 -14 -10z" data-original-id="CheekLeft"/>
  <path id="RightCheek" d="M6026 2253 c-4 -5 -33 -10 -64 -13 l-57 -5 1 -43 1 -44 26 -26 c65 -67 78 -79 120 -109 l46 -33 34 -58 34 -57 1 -39 1 -39 -33 -76 c-18 -42 -36 -89 -40 -106 -4 -16 -17 -40 -29 -53 -12 -13 -22 -29 -22 -35 -3 -42 -65 -137 -90 -137 -22 0 -65 -41 -80 -76 l-14 -34 -15 0 c-8 0 -31 -9 -51 -21 l-35 -21 -46 7 -46 7 -22 -20 c-11 -11 -34 -22 -50 -26 l-29 -7 9 -9 c5 -5 124 -14 264 -20 140 -6 269 -13 287 -16 l31 -6 21 21 21 21 0 43 c0 23 5 58 11 77 6 19 15 53 19 75 9 46 26 98 46 138 8 16 14 33 14 38 0 17 64 114 94 144 53 50 79 63 147 70 l64 6 130 -15 130 -14 51 7 50 7 33 23 c18 13 43 41 57 62 l24 39 0 58 0 58 -13 18 -14 19 -22 -32 c-47 -65 -101 -75 -201 -36 -35 14 -71 25 -79 25 -9 0 -38 12 -66 25 -27 14 -72 28 -100 32 -27 3 -74 17 -103 30 -29 12 -57 23 -63 23 -18 0 -154 71 -179 94 -51 46 -180 83 -204 59z" data-original-id="CheekRight"/>
  <path id="Nose" d="M1816 2229 c-18 -10 -51 -21 -72 -25 -49 -9 -94 -31 -94 -47 0 -21 -92 -64 -165 -77 l-70 -13 -61 -33 c-33 -19 -67 -34 -75 -34 -8 0 -50 -13 -92 -30 -112 -43 -169 -37 -234 23 l-22 20 -16 -13 -15 -12 0 -32 c0 -75 31 -138 91 -182 l31 -23 56 -7 55 -7 137 17 137 17 54 -7 54 -7 46 -30 47 -30 40 -61 c68 -104 142 -322 142 -418 l0 -38 20 -20 19 -19 48 4 c26 3 142 10 258 16 115 6 216 14 225 19 l15 9 -15 4 c-55 16 -113 27 -120 22 -17 -11 -180 105 -180 129 0 12 -60 70 -88 85 l-22 12 0 24 c0 13 -15 54 -34 92 -75 149 -91 199 -91 272 l0 53 33 27 c17 15 32 33 32 39 0 19 59 80 83 86 l24 6 26 48 c15 27 28 64 29 82 l3 33 -50 17 c-27 9 -74 19 -103 22 l-53 5 -33 -18z" data-original-id="Nose"/>
  <!-- End lower_left_head_and_details -->
</g>
<!-- Clinical id map: Head, Forehead, RightCheek, LeftCheek, UpperLip, LowerLip, Nose, Chin, RightEar, LeftEar, AnteriorNeck, PosteriorNeck, Chest, UpperAbdomen, LowerAbdomen, UpperBack, LowerBack, RightUpperArm, RightForearm, RightHand, RightPalm, LeftUpperArm, LeftForearm, LeftHand, LeftPalm, RightThigh, RightKnee, RightLowerLeg, RightFoot, LeftThigh, LeftKnee, LeftLowerLeg, LeftFoot, Buttocks, GenitalArea --></svg>