<svg version="1.0" xmlns="http://www.w3.org/2000/svg" width="600.000000pt" height="338.000000pt" viewBox="0 0 600.000000 338.000000" preserveAspectRatio="xMidYMid meet" style="width: 616.385px; height: auto;"> <g transform="translate(0.000000,338.000000) scale(0.100000,-0.100000)" fill="#000000" stroke="none"> <path d="M564 3106 c-129 -62 -172 -140 -181 -333 -6 -108 -6 -111 -23 -91 l-17 22 -13 -24 c-22 -42 16 -280 45 -280 8 0 10 9 7 25 -3 17 0 25 10 25 9 0 15 -10 16 -27 0 -16 8 -80 17 -143 31 -210 7 -285 -121 -376 -35 -25 -64 -48 -64 -50 0 -3 4 -2 10 1 11 7 121 14 234 14 123 1 84 10 -52 12 -66 1 -119 6 -116 10 2 5 12 5 22 2 9 -3 14 -3 10 1 -7 9 47 66 62 66 6 0 10 6 10 13 0 8 9 24 20 37 12 13 18 31 15 41 -3 9 -1 20 4 24 15 8 6 127 -19 270 -33 190 -45 389 -29 485 6 36 12 72 13 81 4 32 29 79 39 72 6 -4 7 -1 3 6 -9 14 41 70 62 71 6 0 12 5 12 11 0 6 7 9 15 5 8 -3 15 -1 15 4 0 6 9 10 21 10 11 0 18 4 15 9 -8 12 17 17 91 20 45 2 75 -3 112 -20 28 -12 51 -26 51 -31 0 -5 5 -6 10 -3 6 3 10 -1 10 -9 0 -9 5 -16 11 -16 5 0 7 6 3 13 -4 6 3 3 15 -8 25 -22 57 -75 53 -89 -2 -4 3 -15 10 -23 6 -8 13 -41 14 -74 1 -33 5 -73 9 -89 5 -22 1 -38 -14 -59 -27 -37 -27 -51 -1 -20 l19 24 1 -28 c0 -16 -4 -26 -9 -23 -5 4 -7 -4 -3 -16 3 -11 1 -19 -4 -16 -5 3 -17 -9 -26 -28 -15 -29 -15 -34 -3 -34 8 0 14 3 13 8 -2 13 14 42 24 42 6 0 8 -14 3 -37 -3 -20 -9 -55 -11 -77 -3 -23 -11 -63 -19 -91 -14 -53 -30 -178 -26 -207 1 -10 -2 -18 -8 -18 -5 0 -12 8 -14 18 -10 39 2 -38 17 -112 9 -44 23 -87 31 -96 8 -9 12 -20 8 -25 -5 -4 -3 -6 2 -2 6 3 17 -8 24 -24 7 -16 18 -29 25 -29 7 0 23 -12 37 -26 l24 -25 -25 8 c-14 5 -79 6 -145 3 l-120 -6 90 -4 c230 -8 270 -7 252 4 -56 34 -120 88 -144 122 -24 34 -28 51 -31 129 -5 97 15 295 29 295 5 0 9 -4 9 -10 0 -14 30 -12 34 3 30 105 51 216 43 224 -4 3 -10 -14 -14 -38 l-8 -44 -5 55 c-6 60 -1 85 11 54 7 -17 8 -17 8 4 1 26 -24 30 -37 6 -6 -11 -11 27 -14 108 -7 149 -27 206 -95 268 -106 98 -231 118 -359 56z m-211 -494 c-6 -53 -14 -61 -19 -19 -5 35 6 91 16 81 4 -5 6 -33 3 -62z m37 -16 c0 -29 3 -68 6 -85 5 -24 3 -31 -10 -31 -9 0 -16 -8 -16 -17 0 -15 -2 -16 -10 -3 -14 21 -12 43 2 34 8 -5 9 -2 4 12 -9 24 3 144 15 144 5 0 9 -24 9 -54z m642 17 c0 -21 2 -51 3 -68 2 -44 -5 -65 -23 -65 -12 0 -14 9 -8 46 3 26 6 64 6 85 0 50 19 51 22 2z m-12 -179 c0 -17 -22 -14 -28 4 -2 7 3 12 12 12 9 0 16 -7 16 -16z"></path> <path d="M1860 3127 c-51 -17 -131 -66 -157 -95 -32 -36 -61 -100 -73 -161 -13 -69 -13 -198 0 -206 6 -3 10 2 11 12 1 28 8 95 14 126 2 15 1 26 -4 23 -11 -7 6 83 19 99 5 6 6 16 2 20 -4 5 -2 5 5 1 7 -4 13 2 16 16 3 16 5 12 6 -12 1 -28 3 -32 12 -18 5 10 8 33 6 53 -4 28 -1 35 10 31 9 -4 13 -1 11 6 -6 18 23 47 40 40 11 -4 13 -2 7 8 -6 10 -2 11 21 6 17 -4 24 -3 16 2 -18 12 22 29 90 37 104 13 196 -20 281 -100 45 -42 42 -22 -3 22 -61 62 -141 97 -225 100 -38 1 -86 -3 -105 -10z"></path> <path d="M5080 3129 c-60 -24 -84 -67 -95 -172 -5 -48 -3 -63 15 -92 16 -25 20 -47 18 -82 l-3 -48 -65 -32 c-36 -18 -72 -32 -80 -32 -9 -1 -35 -13 -58 -28 -60 -39 -71 -75 -77 -251 -6 -174 -9 -192 -45 -251 -27 -43 -49 -116 -65 -206 -4 -22 -18 -74 -31 -115 -21 -62 -32 -80 -63 -102 -45 -32 -101 -136 -80 -149 7 -4 21 -3 31 2 16 9 18 4 18 -53 0 -53 4 -66 24 -86 20 -19 28 -21 48 -11 12 6 34 24 47 40 26 33 61 153 61 212 0 39 18 77 96 203 54 86 82 163 91 245 3 33 9 62 13 64 9 5 22 -79 15 -97 -3 -7 -9 -62 -15 -121 -5 -59 -17 -145 -26 -190 -30 -145 -8 -346 57 -545 22 -66 22 -74 3 -319 -6 -87 6 -164 46 -278 12 -33 24 -92 27 -132 l6 -72 -37 -37 c-56 -56 -49 -64 59 -71 64 -3 75 -1 87 16 14 20 14 20 26 0 12 -18 21 -20 93 -16 100 6 116 18 73 55 -18 15 -36 36 -42 47 -19 39 -5 146 37 278 46 143 49 185 25 303 -17 83 -15 140 10 227 72 249 91 450 56 587 -8 33 -32 237 -33 290 -1 14 3 43 7 65 8 37 9 38 16 15 5 -14 8 -41 9 -60 2 -79 32 -156 111 -287 70 -116 80 -138 80 -180 0 -43 27 -167 29 -135 2 21 21 13 21 -10 0 -12 3 -19 6 -15 9 9 -5 59 -15 52 -8 -5 -31 98 -31 140 0 19 -53 118 -106 200 -35 53 -67 140 -78 215 -4 25 -14 77 -22 117 -17 85 -18 139 -4 146 6 3 5 4 -2 3 -9 -2 -13 -27 -13 -87 0 -46 -6 -104 -14 -128 -7 -25 -10 -59 -6 -78 22 -119 39 -319 39 -453 0 -150 -1 -160 -39 -295 -43 -151 -47 -213 -31 -420 6 -75 4 -101 -13 -160 -63 -217 -71 -252 -65 -282 4 -23 2 -33 -6 -33 -7 0 8 -19 34 -42 57 -50 50 -57 -49 -55 l-70 2 4 70 c2 39 4 178 5 310 1 132 4 245 8 250 3 6 1 35 -6 65 -8 36 -13 150 -15 327 l-1 271 34 -10 c23 -7 45 -7 72 0 l39 11 -40 -3 c-22 -1 -55 1 -72 6 l-33 9 0 75 c0 48 -4 73 -10 69 -5 -3 -10 -37 -10 -75 0 -78 -2 -80 -88 -81 -55 -1 -56 -1 -23 -11 35 -9 59 -8 94 7 18 7 18 -4 13 -272 -3 -154 -10 -300 -16 -324 -8 -31 -8 -67 -2 -114 6 -42 5 -103 0 -159 -6 -50 -7 -131 -3 -181 3 -49 7 -124 8 -165 l2 -75 -48 -1 c-26 0 -50 -3 -53 -7 -3 -3 -19 -1 -35 5 l-29 10 45 42 c30 29 45 51 44 67 l-1 24 -7 -25 c-5 -18 -9 -4 -14 50 -3 41 -22 129 -41 194 -41 134 -45 198 -20 303 18 78 13 153 -16 238 -54 157 -74 400 -45 549 25 131 30 229 23 463 -3 117 -14 163 -17 68 0 -30 -6 -74 -11 -98 -6 -23 -17 -84 -24 -135 -12 -78 -21 -105 -57 -165 -121 -207 -127 -218 -132 -294 -6 -75 -25 -153 -38 -153 -4 0 -3 16 3 36 5 20 8 38 5 40 -2 2 -11 -23 -20 -56 -10 -33 -21 -60 -27 -60 -6 0 -6 9 -1 23 15 40 22 97 13 97 -6 0 -13 -21 -16 -47 -9 -64 -15 -83 -27 -83 -6 0 -7 16 -4 38 4 20 9 51 11 67 4 23 3 26 -5 15 -6 -8 -11 -32 -11 -52 0 -20 -4 -40 -10 -43 -9 -5 -16 91 -12 148 2 24 -13 21 -31 -6 -8 -12 -18 -18 -23 -14 -13 13 27 78 78 127 55 53 62 69 94 219 14 69 39 147 63 200 40 86 40 87 47 246 7 187 20 228 83 263 21 12 45 22 54 22 30 0 106 41 131 71 28 33 29 41 20 113 -6 37 -9 44 -20 35 -11 -9 -14 -7 -15 7 -1 11 0 24 1 29 1 6 3 38 4 73 1 60 3 66 38 98 91 82 219 12 205 -112 -2 -25 0 -45 6 -47 13 -4 -1 -47 -15 -44 -12 2 -21 -35 -21 -95 -1 -41 38 -93 77 -104 12 -3 30 -9 41 -14 11 -5 32 -11 46 -14 14 -3 38 -15 53 -27 48 -38 57 -69 61 -222 6 -173 8 -184 51 -272 19 -38 41 -104 50 -145 8 -41 28 -115 45 -165 24 -75 36 -94 64 -115 31 -22 90 -118 79 -129 -2 -3 -15 6 -29 19 l-25 23 0 -86 c0 -49 -4 -87 -10 -87 -9 0 -19 40 -23 88 -1 12 -5 22 -10 22 -5 0 -6 -8 -3 -17 3 -10 8 -40 12 -67 10 -71 -10 -51 -27 26 -8 40 -14 55 -17 40 -2 -12 2 -38 8 -58 14 -42 6 -58 -11 -21 -7 15 -15 24 -20 21 -4 -2 -12 4 -18 13 -6 10 -11 13 -11 6 0 -14 46 -62 78 -81 19 -10 23 -10 28 3 4 8 12 15 20 15 11 0 14 19 14 83 1 60 3 77 11 65 10 -17 39 -24 51 -12 12 11 -51 120 -82 143 -49 36 -78 111 -114 297 -9 42 -27 91 -46 122 -38 63 -38 60 -45 245 -3 84 -10 166 -16 184 -12 38 -68 90 -107 99 -54 14 -130 52 -146 75 -22 31 -20 71 5 126 17 38 19 56 14 107 -11 91 -26 120 -77 145 -48 23 -70 25 -108 10z m37 -1921 c-2 -24 -4 -7 -4 37 0 44 2 63 4 43 2 -21 2 -57 0 -80z m13 -274 c-6 -35 -7 -111 -4 -175 8 -137 -5 -413 -17 -359 -4 19 -5 38 -3 42 3 4 0 48 -7 99 -8 69 -8 121 1 209 9 86 9 132 1 176 -9 44 -8 72 1 113 l12 55 13 -50 c10 -37 11 -64 3 -110z"></path> <path d="M3469 3106 c-20 -14 -41 -38 -48 -53 -15 -37 -19 -171 -5 -181 24 -17 37 -72 25 -111 -12 -43 -35 -57 -143 -91 -114 -35 -134 -77 -143 -300 -6 -145 -8 -159 -39 -230 -18 -41 -50 -142 -71 -225 -38 -145 -41 -151 -85 -195 -25 -25 -57 -67 -70 -93 -21 -41 -23 -49 -10 -57 10 -6 21 -3 37 12 l22 21 -6 -82 c-6 -80 -6 -81 18 -81 21 1 22 2 8 13 -12 9 -14 27 -11 87 4 66 7 78 31 98 l26 23 -30 -17 c-16 -9 -40 -29 -52 -43 -12 -14 -26 -22 -30 -18 -12 13 38 96 79 131 47 41 61 74 97 235 16 70 43 155 59 187 33 66 45 145 43 292 -1 164 51 233 177 235 30 1 46 4 36 7 -18 7 -17 8 3 14 30 9 73 62 73 89 l1 22 18 -22 c10 -12 34 -24 53 -28 28 -5 40 -2 66 20 l31 26 7 -28 c4 -15 14 -36 22 -46 20 -22 97 -57 127 -57 32 0 86 -39 109 -80 18 -30 21 -55 23 -205 l3 -170 35 -70 c23 -45 44 -111 59 -187 30 -146 50 -188 119 -260 30 -31 57 -69 59 -83 7 -32 -2 -32 -32 0 -13 14 -38 32 -54 40 l-31 15 26 -23 c23 -19 27 -32 34 -107 4 -56 3 -82 -3 -75 -6 6 -13 21 -15 35 -4 17 -5 13 -4 -10 1 -19 -2 -36 -8 -38 -10 -3 -36 98 -29 110 10 15 23 8 27 -14 4 -20 4 -19 6 5 1 26 -1 27 -45 27 -26 0 -43 -4 -39 -10 3 -5 12 -7 19 -4 10 4 17 -9 25 -46 15 -68 13 -81 -5 -47 -8 15 -19 25 -24 22 -11 -7 -29 56 -45 160 -12 82 -30 126 -92 222 -70 111 -89 171 -110 368 -3 28 -1 74 5 103 5 28 5 52 1 52 -5 0 -9 -1 -10 -2 -24 -85 -45 -436 -28 -463 17 -27 31 -191 27 -315 -5 -134 -18 -205 -64 -366 -27 -94 -30 -154 -9 -239 24 -99 19 -162 -19 -272 -40 -112 -58 -195 -53 -238 5 -44 24 -83 47 -97 11 -7 20 -19 20 -26 0 -7 -4 -11 -9 -8 -5 4 -12 0 -14 -6 -3 -8 -6 -6 -6 5 -1 10 -6 15 -11 12 -6 -4 -8 -11 -5 -16 4 -5 1 -9 -4 -9 -6 0 -11 6 -11 14 0 8 -4 17 -9 20 -5 4 -7 -3 -4 -14 4 -14 0 -20 -11 -20 -9 0 -16 8 -16 19 0 23 -16 36 -25 21 -3 -5 -1 -10 4 -10 6 0 11 -7 11 -15 0 -22 -38 -18 -45 5 -3 11 -3 59 2 107 7 82 8 127 5 358 0 50 -1 115 -1 145 0 30 -5 176 -11 323 -11 242 -10 270 4 286 20 22 21 38 1 21 -8 -7 -24 -9 -37 -5 -22 7 -22 6 -4 -7 18 -14 19 -24 11 -169 -4 -85 -7 -193 -6 -242 2 -56 -3 -107 -14 -143 -10 -34 -13 -64 -8 -77 4 -12 8 -119 8 -237 0 -118 4 -244 8 -279 9 -80 3 -101 -29 -101 -27 0 -32 15 -8 28 15 8 15 10 0 15 -11 4 -18 -1 -22 -18 -3 -14 -13 -25 -20 -25 -12 0 -12 4 -4 21 7 11 9 23 7 26 -3 3 -12 -8 -21 -24 -8 -15 -15 -21 -16 -13 0 13 -1 13 -10 0 -8 -12 -10 -12 -10 5 0 17 -2 17 -10 5 -8 -13 -10 -12 -10 3 0 9 4 17 10 17 5 0 21 17 35 37 35 53 34 116 -6 224 -63 170 -72 239 -44 354 22 91 19 130 -26 302 -33 128 -42 181 -46 279 -5 107 5 232 24 312 5 21 6 22 20 5 14 -17 14 -17 7 2 -13 36 -16 89 -7 145 6 38 5 70 -4 105 l-12 50 4 -55 c2 -30 -1 -82 -6 -115 -46 -304 -50 -459 -18 -629 11 -61 29 -133 40 -160 29 -78 34 -160 14 -236 -29 -105 -24 -167 25 -319 53 -166 54 -217 10 -272 -35 -44 -37 -55 -11 -69 30 -16 136 -13 151 4 8 11 10 46 5 128 -8 136 -6 480 3 713 l7 170 8 -170 c4 -93 7 -188 7 -210 0 -43 3 -266 3 -325 1 -19 -3 -92 -8 -162 -10 -153 -7 -158 74 -158 108 0 122 15 72 78 -49 62 -48 97 4 266 51 164 54 210 25 363 -13 69 -13 75 14 175 15 56 36 137 47 178 16 60 21 109 21 245 1 100 -4 195 -11 230 -7 33 -14 78 -15 100 -2 22 -7 63 -11 90 -5 33 -3 66 6 95 l13 45 7 -65 c12 -97 47 -197 94 -270 62 -95 95 -165 95 -202 0 -60 36 -183 61 -210 36 -38 63 -43 93 -17 27 23 27 28 10 133 -4 28 -3 28 14 13 22 -20 52 -22 52 -4 0 26 -43 93 -84 133 -46 44 -64 88 -107 270 -11 49 -33 116 -49 149 -40 87 -41 90 -41 247 0 79 -5 160 -12 181 -13 48 -64 91 -126 108 -56 15 -113 42 -129 62 -19 22 -17 89 4 132 22 46 21 138 -1 191 -29 71 -128 96 -196 50z m129 0 c51 -26 60 -46 63 -126 1 -42 -4 -94 -11 -115 -18 -57 -66 -105 -104 -105 -41 0 -93 49 -102 95 -3 19 -10 37 -14 40 -11 6 -1 145 12 168 14 26 68 57 101 57 15 0 40 -6 55 -14z"></path> <path d="M3485 2981 c3 -5 1 -12 -5 -16 -17 -11 -11 -25 11 -25 15 0 19 5 15 16 -3 8 -2 12 4 9 6 -3 10 -2 10 3 0 6 -7 13 -16 16 -22 8 -26 8 -19 -3z"></path> <path d="M3575 2980 c-3 -5 -2 -10 4 -10 6 0 8 -7 5 -15 -4 -10 0 -15 15 -15 12 0 21 5 21 10 0 6 -4 10 -10 10 -5 0 -10 7 -10 15 0 17 -16 20 -25 5z"></path> <path d="M3554 2909 c5 -28 4 -31 -15 -26 -11 3 -19 1 -17 -5 2 -5 6 -8 8 -7 3 1 14 -3 26 -9 18 -10 20 -8 18 11 -1 12 -3 32 -3 45 -1 12 -6 22 -12 22 -8 0 -9 -11 -5 -31z"></path> <path d="M3529 2839 c-11 -7 -11 -9 -1 -9 7 0 10 -4 7 -10 -3 -5 1 -10 10 -10 9 0 14 4 10 9 -3 5 3 11 12 13 15 3 15 5 -3 10 -12 3 -28 2 -35 -3z"></path> <path d="M2232 2960 c0 -14 4 -38 8 -55 l8 -30 0 30 c0 17 -4 41 -8 55 l-8 25 0 -25z"></path> <path d="M1700 2871 c0 -11 5 -23 10 -26 6 -4 10 5 10 19 0 14 -4 26 -10 26 -5 0 -10 -9 -10 -19z"></path> <path d="M2256 2858 c-3 -13 0 -29 7 -36 11 -10 12 -6 9 23 -5 41 -8 43 -16 13z"></path> <path d="M1700 2815 c0 -8 2 -15 4 -15 2 0 6 7 10 15 3 8 1 15 -4 15 -6 0 -10 -7 -10 -15z"></path> <path d="M1826 2792 c-3 -6 1 -15 8 -21 8 -7 17 -8 20 -3 3 6 -1 15 -8 21 -8 7 -17 8 -20 3z"></path> <path d="M2264 2728 c3 -40 5 -74 6 -75 0 -2 8 -3 18 -2 10 0 12 3 5 6 -9 3 -13 28 -13 74 0 43 -4 69 -11 69 -7 0 -9 -24 -5 -72z"></path> <path d="M1678 2745 c-3 -14 -1 -25 3 -25 5 0 9 11 9 25 0 14 -2 25 -4 25 -2 0 -6 -11 -8 -25z"></path> <path d="M4886 2732 c-3 -5 1 -9 9 -9 8 0 12 4 9 9 -3 4 -7 8 -9 8 -2 0 -6 -4 -9 -8z"></path> <path d="M1752 2722 c-19 -6 -14 -20 9 -27 17 -6 19 -9 8 -16 -10 -6 -7 -9 11 -10 l25 -1 -27 -8 c-15 -4 -40 -17 -57 -29 -16 -12 -33 -21 -39 -21 -5 0 -15 -6 -21 -14 -9 -10 -8 -15 4 -20 9 -3 15 0 15 9 0 19 10 18 34 0 21 -16 86 -21 86 -6 0 10 -35 21 -70 21 l-25 0 30 25 c41 33 58 31 94 -11 26 -29 31 -41 26 -70 -3 -19 -8 -51 -11 -71 -3 -21 -9 -42 -14 -48 -14 -18 -19 -60 -10 -75 8 -13 10 -12 10 3 0 9 4 17 10 17 5 0 6 7 3 17 -4 10 -2 14 4 10 5 -3 10 -1 11 6 5 59 11 106 17 129 4 17 0 47 -11 80 -10 29 -17 57 -16 61 1 5 -2 6 -8 2 -12 -7 -50 12 -50 26 0 14 50 0 83 -23 18 -13 27 -28 27 -46 0 -22 -2 -24 -11 -12 -8 12 -9 9 -4 -10 13 -51 17 -131 7 -159 -8 -22 -7 -31 3 -34 15 -6 25 54 25 157 0 103 -5 113 -59 130 -56 17 -93 24 -109 18z m83 -72 c3 -6 -1 -7 -9 -4 -18 7 -21 14 -7 14 6 0 13 -4 16 -10z"></path> <path d="M2043 2703 c-44 -15 -57 -38 -25 -46 9 -2 29 2 43 9 27 13 76 6 102 -14 21 -16 44 -20 58 -11 12 8 12 9 -1 7 -8 -1 -37 10 -65 25 -27 14 -45 26 -40 27 6 0 3 5 -5 10 -18 12 -15 12 -67 -7z"></path> <path d="M1696 2702 c-3 -6 -2 -13 4 -17 15 -9 12 -38 -3 -32 -8 3 -14 -1 -14 -9 0 -19 7 -17 37 6 14 11 19 20 12 20 -7 0 -16 10 -21 22 -5 13 -10 17 -15 10z"></path> <path d="M1955 2699 c-4 -6 -5 -12 -2 -15 2 -3 7 2 10 11 7 17 1 20 -8 4z"></path> <path d="M1557 2673 c-12 -12 -7 -77 12 -151 22 -85 44 -124 66 -116 17 7 19 22 5 44 -8 12 -10 12 -10 1 0 -8 -9 -2 -21 13 -12 15 -18 30 -15 34 4 3 11 0 16 -8 13 -21 24 -5 12 17 -6 10 -8 31 -5 46 3 16 1 27 -6 27 -6 0 -11 -4 -11 -8 0 -5 -7 -9 -15 -9 -11 0 -15 12 -15 43 0 53 14 64 34 27 15 -28 15 -28 16 -4 0 33 -43 64 -63 44z"></path> <path d="M2324 2654 c3 -9 6 -39 7 -67 1 -41 3 -47 9 -27 4 14 8 44 9 68 1 32 -3 42 -15 42 -11 0 -14 -5 -10 -16z"></path> <path d="M3688 2663 c6 -2 18 -2 25 0 6 3 1 5 -13 5 -14 0 -19 -2 -12 -5z"></path> <path d="M430 2647 c0 -8 7 -17 15 -21 8 -3 15 -2 15 3 0 5 -7 14 -15 21 -12 10 -15 10 -15 -3z"></path> <path d="M558 2653 c6 -2 18 -2 25 0 6 3 1 5 -13 5 -14 0 -19 -2 -12 -5z"></path> <path d="M2066 2652 c-3 -5 9 -8 27 -8 18 0 41 -4 52 -8 20 -8 20 -7 1 8 -21 17 -71 22 -80 8z"></path> <path d="M605 2630 c3 -5 15 -10 25 -10 10 0 22 5 25 10 4 6 -7 10 -25 10 -18 0 -29 -4 -25 -10z"></path> <path d="M793 2633 c-7 -2 -13 -9 -13 -14 0 -13 22 -10 44 6 20 15 20 15 0 14 -10 0 -25 -3 -31 -6z"></path> <path d="M2036 2631 c-3 -5 5 -11 19 -13 28 -6 34 6 9 16 -20 8 -22 8 -28 -3z"></path> <path d="M450 2596 c0 -9 4 -16 10 -16 5 0 6 -7 3 -17 -4 -11 -3 -14 5 -9 16 10 15 31 -3 46 -12 10 -15 10 -15 -4z"></path> <path d="M690 2600 c20 -13 57 -13 65 0 4 6 -11 10 -37 10 -31 0 -39 -3 -28 -10z"></path> <path d="M2050 2596 c0 -14 29 -26 65 -26 11 0 26 10 34 23 13 21 13 21 -6 5 -15 -14 -22 -15 -31 -6 -7 7 -12 9 -12 5 0 -3 -11 -2 -25 3 -19 7 -25 6 -25 -4z"></path> <path d="M4859 2593 c-13 -16 -12 -17 4 -4 16 13 21 21 13 21 -2 0 -10 -8 -17 -17z"></path> <path d="M2283 2593 c-21 -7 -15 -30 9 -36 12 -4 24 -4 26 -2 8 8 -24 42 -35 38z"></path> <path d="M1664 2535 c0 -14 5 -25 9 -25 5 0 6 -4 3 -8 -7 -12 12 -38 21 -29 4 4 2 17 -5 27 -7 11 -12 26 -12 34 0 8 -4 17 -9 20 -5 3 -8 -5 -7 -19z"></path> <path d="M1971 2524 c0 -11 3 -14 6 -6 3 7 2 16 -1 19 -3 4 -6 -2 -5 -13z"></path> <path d="M2318 2511 c-9 -10 -19 -34 -22 -52 l-7 -34 23 40 c19 35 30 65 24 65 -1 0 -9 -9 -18 -19z"></path> <path d="M2253 2513 c4 -3 2 -12 -5 -20 -9 -12 -4 -33 6 -22 12 14 16 49 5 49 -7 0 -9 -3 -6 -7z"></path> <path d="M946 2486 c-9 -14 -12 -27 -8 -30 5 -3 13 8 19 25 14 35 10 37 -11 5z"></path> <path d="M455 2470 c-3 -5 -1 -10 4 -10 6 0 11 5 11 10 0 6 -2 10 -4 10 -3 0 -8 -4 -11 -10z"></path> <path d="M501 2454 c0 -11 3 -14 6 -6 3 7 2 16 -1 19 -3 4 -6 -2 -5 -13z"></path> <path d="M1696 2451 c-4 -5 1 -17 10 -25 20 -21 23 -20 17 4 -6 24 -19 34 -27 21z"></path> <path d="M525 2430 c-3 -5 -1 -10 4 -10 6 0 11 5 11 10 0 6 -2 10 -4 10 -3 0 -8 -4 -11 -10z"></path> <path d="M2221 2424 c-9 -11 -12 -31 -8 -65 12 -97 -21 -162 -146 -293 -57 -58 -66 -63 -84 -45 -8 8 -16 8 -30 0 -17 -10 -16 -10 5 -11 14 0 21 -4 17 -11 -4 -6 -13 -8 -21 -5 -8 3 -14 0 -13 -7 3 -27 -2 -35 -26 -41 -14 -4 -24 -10 -21 -14 9 -15 -11 -32 -45 -38 -54 -9 -208 -10 -202 -1 2 4 -6 5 -20 2 -15 -4 -28 -2 -32 6 -5 7 -4 10 2 6 10 -6 38 20 105 93 9 10 13 22 10 26 -4 4 1 4 11 1 17 -7 24 7 8 17 -5 4 -5 23 0 47 5 23 7 49 4 59 -3 10 -1 21 5 25 5 3 10 11 10 16 0 6 -4 8 -9 5 -5 -4 -13 8 -16 26 -4 18 -12 39 -18 47 -6 7 -16 43 -22 80 -6 36 -15 64 -21 61 -14 -8 -5 -89 18 -150 11 -30 23 -86 25 -125 4 -64 2 -74 -26 -117 -20 -32 -53 -62 -103 -94 -40 -26 -77 -51 -83 -56 -11 -10 531 -9 660 2 l90 7 -110 3 c-60 2 -135 2 -166 1 -59 -3 -74 5 -63 34 5 13 8 14 15 3 7 -10 9 -9 9 5 0 9 4 17 8 17 24 0 245 217 236 232 -3 4 -1 8 5 8 6 0 11 -33 13 -77 2 -50 7 -78 16 -81 6 -2 12 1 12 8 0 6 -3 9 -8 6 -4 -2 -9 36 -10 84 -2 67 1 97 13 120 14 26 34 201 23 200 -2 -1 -9 -8 -17 -16z"></path> <path d="M2250 2424 c0 -18 28 -30 40 -18 5 5 -1 14 -16 21 -19 9 -24 8 -24 -3z"></path> <path d="M3360 2400 c0 -19 11 -26 23 -14 8 8 -3 34 -14 34 -5 0 -9 -9 -9 -20z"></path> <path d="M3707 2414 c-12 -12 -8 -23 12 -33 15 -9 18 -7 17 11 -1 22 -17 34 -29 22z"></path> <path d="M1738 2393 c7 -3 16 -2 19 1 4 3 -2 6 -13 5 -11 0 -14 -3 -6 -6z"></path> <path d="M1883 2387 c-9 -14 5 -19 23 -9 12 7 29 6 55 -3 35 -13 59 -6 59 16 0 10 -131 6 -137 -4z"></path> <path d="M3284 2385 c10 -37 10 -160 -2 -210 -6 -27 -15 -77 -21 -110 -12 -66 -40 -129 -99 -220 -51 -80 -67 -125 -82 -218 -14 -96 -30 -144 -40 -127 -5 8 -10 1 -15 -19 -11 -53 -29 -50 -21 4 4 26 10 54 13 61 8 22 26 16 20 -6 -3 -11 -2 -18 3 -15 4 3 10 14 13 25 5 18 0 20 -38 20 -45 0 -55 -12 -55 -69 0 -33 10 -21 15 19 4 36 10 45 23 36 13 -8 -7 -108 -25 -123 -8 -6 -10 -14 -5 -17 6 -3 31 13 56 37 32 29 47 52 51 77 4 19 10 53 15 75 5 22 10 55 10 73 0 32 32 96 102 205 20 32 44 80 53 108 44 132 65 359 37 396 -13 17 -14 17 -8 -2z"></path> <path d="M1883 2348 c-9 -10 -19 -15 -23 -13 -4 3 -10 -5 -13 -17 -4 -16 -3 -18 6 -9 6 6 18 11 27 11 8 1 29 12 45 25 l30 25 -28 -2 c-15 -1 -35 -10 -44 -20z"></path> <path d="M3334 2346 c11 -9 32 -16 46 -16 14 0 35 7 46 16 18 14 18 15 -6 8 -14 -4 -32 -8 -40 -8 -8 0 -26 4 -40 8 -24 7 -24 6 -6 -8z"></path> <path d="M3650 2351 c0 -23 83 -27 101 -5 11 13 9 14 -17 8 -16 -4 -31 -8 -33 -10 -1 -1 -14 1 -27 6 -13 5 -24 6 -24 1z"></path> <path d="M1950 2330 c0 -11 5 -20 10 -20 6 0 10 9 10 20 0 11 -4 20 -10 20 -5 0 -10 -9 -10 -20z"></path> <path d="M502 2315 c0 -42 12 -82 21 -69 3 6 0 31 -7 55 -12 39 -14 41 -14 14z"></path> <path d="M1900 2292 c-8 -3 -27 -13 -42 -24 -15 -10 -32 -17 -39 -16 -6 2 -14 -3 -16 -9 -6 -16 23 -17 32 -3 6 10 216 9 240 -1 6 -2 11 1 13 6 2 6 -11 13 -27 16 -17 4 -38 13 -48 20 -13 11 -17 11 -20 2 -5 -15 -43 -18 -43 -4 0 11 -31 19 -50 13z"></path> <path d="M896 2272 c-2 -4 -1 -14 5 -22 7 -12 9 -10 9 8 0 23 -5 28 -14 14z"></path> <path d="M1868 2203 c22 -15 22 -17 5 -36 -18 -20 -18 -20 42 -12 33 4 69 8 79 9 11 2 22 11 26 22 7 18 3 19 -57 16 -38 -2 -70 1 -76 7 -6 6 -18 11 -26 10 -12 0 -10 -4 7 -16z"></path> <path d="M485 2179 c-4 -6 -5 -12 -2 -15 2 -3 7 2 10 11 7 17 1 20 -8 4z"></path> <path d="M3056 2167 c3 -10 9 -15 12 -12 3 3 0 11 -7 18 -10 9 -11 8 -5 -6z"></path> <path d="M3200 2160 c0 -5 7 -10 15 -10 8 0 15 5 15 10 0 6 -7 10 -15 10 -8 0 -15 -4 -15 -10z"></path> <path d="M3850 2160 c0 -5 6 -10 14 -10 8 0 18 5 21 10 3 6 -3 10 -14 10 -12 0 -21 -4 -21 -10z"></path> <path d="M4760 2135 c-8 -9 -8 -15 -2 -15 12 0 26 19 19 26 -2 2 -10 -2 -17 -11z"></path> <path d="M5474 2126 c0 -13 4 -22 9 -19 10 6 9 31 -2 37 -5 3 -8 -5 -7 -18z"></path> <path d="M1863 2108 c5 -36 35 -98 47 -98 7 0 6 7 -1 23 -25 46 -29 57 -29 71 0 8 -5 18 -10 21 -7 4 -10 -2 -7 -17z"></path> <path d="M5430 2105 c-10 -13 -9 -15 11 -15 17 0 20 3 10 9 -11 7 -11 9 0 14 8 3 9 6 3 6 -6 1 -17 -6 -24 -14z"></path> <path d="M4795 2100 c-19 -8 -19 -9 3 -9 12 -1 22 4 22 9 0 6 -1 10 -2 9 -2 0 -12 -4 -23 -9z"></path> <path d="M1942 2058 c3 -7 13 -15 22 -16 12 -3 17 1 14 10 -3 7 -13 15 -22 16 -12 3 -17 -1 -14 -10z"></path> <path d="M3527 2044 c-12 -13 -7 -20 13 -20 11 0 19 5 17 10 -4 13 -21 18 -30 10z"></path> <path d="M1900 1986 c0 -2 7 -7 16 -10 8 -3 12 -2 9 4 -6 10 -25 14 -25 6z"></path> <path d="M2265 1960 c3 -5 8 -10 11 -10 2 0 4 5 4 10 0 6 -5 10 -11 10 -5 0 -7 -4 -4 -10z"></path> <path d="M2305 1938 c11 -6 22 -14 25 -18 3 -4 15 -12 28 -19 13 -7 20 -17 16 -23 -5 -7 -2 -9 8 -5 9 3 21 0 27 -6 6 -6 14 -8 18 -4 8 9 -29 37 -39 31 -5 -3 -8 -1 -8 4 0 12 -66 52 -83 52 -7 0 -3 -6 8 -12z"></path> <path d="M4746 1913 c-6 -14 -5 -15 5 -6 7 7 10 15 7 18 -3 3 -9 -2 -12 -12z"></path> <path d="M3126 1873 c-6 -14 -5 -15 5 -6 7 7 10 15 7 18 -3 3 -9 -2 -12 -12z"></path> <path d="M4610 1736 c0 -2 8 -10 18 -17 15 -13 16 -12 3 4 -13 16 -21 21 -21 13z"></path> <path d="M1885 1628 c-44 -9 -109 -37 -102 -44 2 -2 25 5 52 17 28 12 67 21 97 21 28 -1 48 1 45 4 -9 10 -51 10 -92 2z"></path> <path d="M606 1622 c-10 -4 25 -6 78 -4 52 2 103 1 113 -3 10 -5 24 -7 31 -6 6 1 12 -2 12 -7 0 -6 12 -13 28 -17 15 -3 44 -17 65 -31 31 -20 37 -29 32 -47 -5 -16 -4 -18 3 -8 9 12 13 12 27 -2 9 -9 13 -22 9 -28 -4 -7 -3 -9 4 -5 20 12 66 -73 78 -144 10 -64 14 -240 4 -240 -5 0 -8 -13 -8 -29 1 -16 -6 -37 -16 -46 -18 -18 -21 -30 -6 -20 15 9 12 -4 -5 -22 -8 -8 -13 -19 -10 -24 4 -5 2 -9 -3 -9 -5 0 -14 -12 -20 -26 -7 -15 -17 -22 -24 -18 -7 4 -8 3 -4 -5 4 -6 4 -21 1 -32 -6 -17 -9 -19 -17 -8 -8 11 -9 10 -4 -3 3 -10 -2 -40 -10 -68 -9 -32 -13 -66 -9 -93 4 -23 7 -56 8 -74 1 -17 5 -29 8 -27 4 2 10 -8 13 -22 4 -15 22 -51 41 -80 38 -59 36 -64 -30 -75 -33 -5 -27 -7 34 -8 l73 -1 -16 25 c-84 128 -110 200 -104 294 3 60 11 83 68 196 l65 127 3 112 c7 222 -64 364 -223 444 -64 32 -79 35 -170 38 -55 2 -108 0 -119 -4z"></path> <path d="M2003 1623 c9 -2 23 -2 30 0 6 3 -1 5 -18 5 -16 0 -22 -2 -12 -5z"></path> <path d="M2060 1616 c0 -2 7 -7 16 -10 8 -3 12 -2 9 4 -6 10 -25 14 -25 6z"></path> <path d="M545 1600 c-3 -5 -2 -10 4 -10 5 0 13 5 16 10 3 6 2 10 -4 10 -5 0 -13 -4 -16 -10z"></path> <path d="M2100 1601 c0 -10 30 -24 37 -17 3 2 -5 9 -16 16 -12 6 -21 7 -21 1z"></path> <path d="M1718 1555 c-151 -110 -215 -362 -143 -566 9 -23 33 -73 54 -110 53 -91 64 -130 59 -207 -3 -51 -12 -85 -41 -145 -20 -43 -46 -92 -58 -108 l-20 -29 58 0 c41 0 54 3 43 10 -8 5 -25 10 -37 10 -13 0 -23 5 -23 11 0 5 5 7 10 4 6 -3 10 1 10 10 0 9 4 14 9 11 5 -4 7 4 3 16 -4 15 -2 19 7 14 8 -5 12 -3 10 5 -3 28 1 40 13 33 6 -4 8 -3 5 3 -3 5 2 27 13 49 31 64 30 244 -1 244 -5 0 -8 3 -8 8 3 19 -2 45 -7 39 -4 -3 -15 10 -25 31 -20 37 -25 58 -10 33 6 -9 11 -10 15 -2 4 6 2 11 -3 11 -6 0 -11 8 -11 18 0 13 -2 14 -9 3 -6 -9 -13 -1 -25 30 -34 91 -41 143 -34 230 4 46 8 92 8 101 1 10 5 20 11 23 5 4 9 14 9 24 0 42 87 159 151 205 13 8 21 18 18 20 -2 3 -25 -11 -51 -29z"></path> <path d="M2173 1570 c14 -11 29 -20 34 -20 4 0 28 -19 53 -43 41 -37 87 -114 95 -157 2 -8 4 -15 5 -15 1 0 3 -18 6 -40 3 -29 2 -36 -6 -25 -8 13 -10 13 -10 -2 0 -10 5 -18 10 -18 6 0 10 -8 10 -19 0 -14 -6 -18 -25 -16 -14 2 -28 -2 -32 -9 -5 -7 -25 -22 -45 -35 -21 -12 -38 -25 -38 -27 0 -3 4 -3 9 0 5 4 11 0 14 -6 3 -9 12 -3 26 15 24 28 43 36 40 15 -4 -34 2 -49 19 -46 13 2 18 -5 20 -30 2 -18 7 -30 12 -27 5 3 13 -7 16 -22 4 -15 14 -33 23 -39 13 -10 14 -14 1 -30 -14 -17 -14 -18 2 -6 20 16 38 8 38 -17 0 -13 -10 -21 -31 -25 -57 -11 -61 -9 -56 29 3 25 1 35 -9 35 -15 0 -12 -46 6 -79 6 -12 10 -28 8 -35 -2 -8 2 -15 7 -15 6 -1 10 4 10 10 0 12 11 19 58 38 33 13 34 31 4 68 -41 52 -70 122 -66 166 1 23 3 78 3 122 0 70 -4 87 -31 140 -34 65 -95 129 -156 163 -48 27 -57 28 -24 2z"></path> <path d="M453 1558 c-18 -11 -33 -25 -32 -31 0 -8 2 -8 6 1 2 6 10 12 17 12 7 0 23 9 36 20 29 25 15 24 -27 -2z"></path> <path d="M4030 1526 c0 -8 5 -18 10 -21 6 -3 10 3 10 14 0 12 -4 21 -10 21 -5 0 -10 -6 -10 -14z"></path> <path d="M384 1501 c-44 -42 -63 -72 -84 -132 -19 -56 -21 -77 -16 -164 6 -99 5 -101 -28 -167 -19 -37 -29 -65 -23 -62 15 5 47 61 47 80 0 9 4 13 9 10 5 -3 9 0 8 7 -1 32 4 43 22 44 22 2 30 -21 31 -82 1 -34 3 -37 10 -17 5 12 7 29 4 37 -4 8 1 27 11 41 16 25 16 26 -4 19 -18 -5 -20 -2 -19 29 1 30 4 34 19 25 10 -5 23 -17 28 -27 9 -16 10 -16 17 1 3 10 5 19 3 20 -62 41 -91 56 -104 51 -12 -5 -15 4 -15 53 0 78 21 138 70 197 22 27 40 50 40 52 0 8 -6 4 -26 -15z"></path> <path d="M713 1176 c-24 -11 -43 -23 -43 -28 0 -13 16 -9 30 7 17 20 63 19 90 -3 16 -13 24 -32 28 -70 6 -63 -11 -102 -66 -155 -49 -47 -74 -46 -83 3 -4 19 -7 27 -8 17 0 -10 -5 -15 -11 -12 -24 15 2 -40 33 -71 l22 -20 57 58 c70 71 86 116 68 196 -8 39 -19 57 -38 70 -15 9 -29 19 -32 22 -3 3 -24 -3 -47 -14z"></path> <path d="M1894 1180 c-12 -5 -25 -13 -29 -19 -3 -6 -10 -9 -15 -6 -4 3 -7 -3 -5 -12 1 -10 -2 -23 -7 -30 -20 -25 -10 -101 19 -153 15 -27 31 -50 34 -50 3 0 19 -11 35 -25 50 -43 78 -30 88 40 l6 40 -13 -35 c-8 -19 -22 -37 -32 -38 -18 -4 -97 65 -117 103 -29 52 -14 134 30 163 31 20 59 17 90 -11 12 -11 22 -16 22 -10 0 31 -69 59 -106 43z"></path> <path d="M1909 1138 c-15 -5 -32 -22 -39 -38 -18 -44 -7 -57 15 -16 23 42 50 58 40 23 -5 -17 -4 -18 4 -7 5 8 13 11 17 7 4 -4 -5 -18 -19 -31 -15 -14 -27 -35 -27 -47 0 -19 4 -20 33 -15 28 5 33 3 34 -15 2 -27 8 -33 23 -24 9 5 9 10 1 18 -6 6 -11 21 -11 34 0 27 -16 30 -42 6 -10 -9 -21 -13 -25 -9 -4 4 7 20 25 37 18 16 32 39 32 49 0 26 -29 39 -61 28z"></path> <path d="M707 1133 c-16 -15 -5 -45 29 -80 32 -34 35 -35 29 -13 -4 14 -12 27 -17 28 -4 2 -16 11 -24 20 -15 14 -14 16 7 24 18 7 27 4 46 -18 26 -31 32 -12 7 24 -15 21 -62 31 -77 15z"></path> <path d="M3392 1110 c0 -14 2 -19 5 -12 2 6 2 18 0 25 -3 6 -5 1 -5 -13z"></path> <path d="M3670 1093 c0 -23 -3 -50 -6 -60 -5 -13 -4 -15 5 -7 14 13 21 79 9 96 -4 8 -8 -4 -8 -29z" class=""></path> <path d="M2290 1103 c0 -5 7 -17 15 -27 14 -19 15 -19 15 7 0 17 -5 27 -15 27 -8 0 -15 -3 -15 -7z"></path> <path d="M4975 1090 c-4 -12 -5 -24 -2 -27 3 -2 8 5 12 17 4 12 5 24 2 27 -3 2 -8 -5 -12 -17z"></path> <path d="M5033 1097 c4 -10 7 -23 7 -28 0 -5 5 -9 10 -9 16 0 12 26 -7 41 -15 12 -16 12 -10 -4z"></path> <path d="M5191 1103 c0 -6 -4 -20 -7 -30 -5 -14 -4 -15 5 -7 7 7 11 20 8 30 -3 11 -5 14 -6 7z"></path> <path d="M5252 1085 c0 -16 2 -22 5 -12 2 9 2 23 0 30 -3 6 -5 -1 -5 -18z"></path> <path d="M3580 1080 c0 -17 31 -72 37 -67 7 7 -19 77 -29 77 -4 0 -8 -5 -8 -10z"></path> <path d="M674 1068 c-4 -7 -3 -8 4 -4 8 5 12 -4 12 -28 0 -19 -5 -38 -10 -41 -12 -7 -4 -25 11 -25 5 0 9 8 9 18 0 26 10 33 31 21 29 -15 23 1 -15 37 -23 23 -37 30 -42 22z"></path> <path d="M3390 1052 c0 -18 5 -32 10 -32 6 0 8 11 4 28 -10 39 -14 40 -14 4z"></path> <path d="M3466 1054 c-4 -14 -5 -29 -2 -31 3 -3 8 7 12 21 3 15 4 29 1 32 -2 3 -8 -7 -11 -22z"></path> <path d="M2305 1040 c3 -5 8 -10 11 -10 2 0 4 5 4 10 0 6 -5 10 -11 10 -5 0 -7 -4 -4 -10z"></path> <path d="M646 1023 c-6 -14 -5 -15 5 -6 7 7 10 15 7 18 -3 3 -9 -2 -12 -12z"></path> <path d="M1877 1024 c-13 -13 20 -58 48 -65 6 -1 15 -9 22 -18 6 -9 15 -12 20 -7 4 4 0 13 -11 20 -39 23 -76 58 -70 67 6 10 0 12 -9 3z"></path> <path d="M280 1014 c0 -5 9 -22 20 -39 11 -16 20 -24 20 -17 0 8 -9 25 -20 39 -11 14 -20 22 -20 17z"></path> <path d="M767 996 c-3 -8 -22 -22 -41 -31 -37 -18 -47 -35 -21 -35 8 0 15 4 15 8 0 5 11 14 24 20 25 11 54 52 37 52 -5 0 -11 -6 -14 -14z"></path> <path d="M200 941 c0 -23 16 -36 54 -45 26 -6 28 -10 22 -40 -8 -41 12 -66 53 -66 24 0 30 -5 35 -32 5 -24 9 -29 15 -19 6 10 1 27 -16 53 -14 21 -28 38 -30 38 -2 0 -1 -4 2 -10 8 -13 -11 -13 -36 0 -15 8 -18 17 -13 38 4 15 13 34 20 43 17 19 18 39 3 39 -5 0 -7 -4 -4 -10 7 -12 -9 -13 -54 -4 -17 4 -31 13 -31 20 0 8 -4 14 -10 14 -5 0 -10 -8 -10 -19z"></path> <path d="M325 890 c-4 -7 -2 -16 6 -21 18 -11 23 -4 11 17 -7 12 -11 13 -17 4z"></path> <path d="M2326 885 c4 -8 8 -15 10 -15 2 0 4 7 4 15 0 8 -4 15 -10 15 -5 0 -7 -7 -4 -15z"></path> <path d="M2370 825 c-7 -9 -22 -14 -34 -13 -13 2 -22 -3 -24 -14 -3 -15 1 -16 28 -8 35 10 60 27 60 41 0 14 -16 10 -30 -6z"></path> <path d="M386 817 c3 -10 9 -15 12 -12 3 3 0 11 -7 18 -10 9 -11 8 -5 -6z"></path> <path d="M2290 766 c0 -9 5 -16 10 -16 6 0 10 4 10 9 0 6 -4 13 -10 16 -5 3 -10 -1 -10 -9z"></path> <path d="M2351 761 c-19 -19 -22 -29 -16 -58 4 -22 2 -40 -7 -51 -11 -13 -11 -14 1 -8 9 6 12 4 9 -5 -7 -22 -77 -24 -95 -2 -8 10 -12 13 -9 7 6 -12 -14 -24 -37 -24 -7 0 -6 5 3 11 12 9 12 10 -3 5 -10 -3 -25 -6 -33 -6 -9 0 -13 -4 -9 -9 5 -9 -32 -27 -48 -23 -5 1 -6 -2 -3 -7 3 -5 -1 -12 -10 -15 -8 -3 -13 -10 -10 -14 3 -5 -3 -26 -13 -46 -12 -23 -21 -32 -25 -24 -3 7 -3 3 0 -10 3 -13 3 -34 0 -46 -6 -26 -34 -30 -201 -29 -78 0 -83 -1 -40 -8 69 -10 267 -11 261 0 -11 17 28 122 59 158 l33 38 84 -3 c102 -3 114 5 111 82 -1 34 4 57 14 68 25 28 10 45 -16 19z"></path> <path d="M290 754 c0 -8 4 -14 9 -14 5 0 13 -10 17 -22 6 -20 7 -20 17 -3 7 14 7 20 -1 23 -7 2 -10 7 -7 12 3 4 -4 10 -15 13 -13 3 -20 0 -20 -9z"></path> <path d="M311 659 c-2 -57 24 -73 106 -66 83 6 122 -8 145 -54 22 -44 48 -136 41 -143 -4 -3 41 -5 98 -5 102 2 103 2 44 11 -33 5 -71 9 -84 8 -30 0 -41 15 -41 58 0 20 -4 31 -10 27 -6 -3 -10 4 -10 18 0 26 -58 97 -79 97 -7 0 -9 5 -5 12 5 7 2 9 -8 5 -9 -3 -32 -2 -51 3 -20 4 -37 4 -39 0 -2 -4 -18 -11 -36 -15 -29 -6 -34 -4 -39 14 -3 12 -9 21 -13 21 -5 0 -11 10 -13 23 -3 14 -5 9 -6 -14z"></path> <path d="M2060 673 c0 -19 21 -27 33 -13 9 10 9 11 -2 5 -8 -4 -17 -2 -22 6 -6 9 -9 10 -9 2z"></path> <path d="M3605 450 c-3 -6 1 -7 9 -4 18 7 21 14 7 14 -6 0 -13 -4 -16 -10z"></path> <path d="M1703 393 c9 -2 25 -2 35 0 9 3 1 5 -18 5 -19 0 -27 -2 -17 -5z"></path> </g> </svg>